{"glyphs":{"0":{"ha":1001,"x_min":0,"x_max":0,"o":"m 501 -19 b 954 547 772 -19 954 216 b 501 1113 954 878 772 1113 b 47 547 230 1113 47 878 b 501 -19 47 216 230 -19 z m 500 203 b 267 547 357 203 267 345 b 500 892 267 749 357 892 b 733 547 642 892 733 749 b 500 203 733 345 642 203 z "},"1":{"ha":486,"x_min":0,"x_max":0,"o":"m 327 1107 l 47 1018 l 47 789 l 172 825 l 172 0 l 391 0 l 391 1107 z "},"2":{"ha":918,"x_min":0,"x_max":0,"o":"m 515 219 b 854 727 672 332 854 547 b 473 1113 854 929 684 1113 b 94 753 268 1113 94 951 l 294 703 b 481 893 294 808 381 893 b 634 715 550 893 634 819 b 47 40 634 597 450 405 l 47 0 l 870 0 l 870 219 z "},"3":{"ha":837,"x_min":0,"x_max":0,"o":"m 614 616 b 733 830 686 651 733 733 b 416 1128 733 1004 585 1128 b 98 882 252 1128 129 1013 l 323 836 b 414 912 333 883 369 912 b 513 812 469 912 513 871 b 316 673 513 732 427 673 l 283 548 b 568 350 439 548 568 467 b 417 203 568 270 508 203 b 263 312 342 203 279 248 l 47 257 b 422 -14 84 109 243 -14 b 789 334 629 -14 789 141 b 614 616 789 474 707 572 z "},"4":{"ha":935,"x_min":0,"x_max":0,"o":"m 907 454 l 797 454 l 797 757 l 578 757 l 578 454 l 341 454 l 619 1097 l 388 1098 l 14 235 l 578 235 l 578 0 l 797 0 l 797 235 l 907 235 z "},"5":{"ha":874,"x_min":0,"x_max":0,"o":"m 448 762 b 307 725 390 762 345 752 l 330 876 l 730 876 l 730 1094 l 167 1094 l 84 526 l 206 463 b 416 550 256 521 340 550 b 598 385 530 550 598 487 b 416 206 598 255 494 206 b 266 288 355 206 299 237 l 47 218 b 426 -13 111 77 260 -13 b 827 385 648 -13 827 144 b 448 762 827 600 682 762 z "},"6":{"ha":864,"x_min":0,"x_max":0,"o":"m 495 697 b 422 688 471 697 446 694 l 649 1092 l 399 1093 b 47 348 82 508 47 455 b 429 -18 47 122 215 -18 b 817 359 646 -18 817 153 b 495 697 817 555 661 697 z m 433 201 b 268 365 342 201 268 275 b 433 531 268 456 343 531 b 599 366 524 531 599 455 b 433 201 599 276 524 201 z "},"7":{"ha":790,"x_min":0,"x_max":0,"o":"m 28 1093 l 28 879 l 467 879 l 132 0 l 363 0 l 776 1053 l 776 1093 z "},"8":{"ha":851,"x_min":0,"x_max":0,"o":"m 425 -23 b 804 330 650 -23 804 142 b 604 619 804 508 665 606 b 747 831 660 635 747 715 b 426 1117 747 977 613 1117 b 106 831 237 1117 106 975 b 250 619 106 724 179 637 b 47 330 178 607 47 505 b 425 -23 47 144 199 -23 z m 427 718 b 319 817 371 718 319 751 b 427 913 319 880 369 913 b 535 814 484 913 535 880 b 427 718 535 745 478 718 z m 425 196 b 268 342 336 196 268 260 b 427 497 268 429 342 497 b 583 344 511 497 583 429 b 425 196 583 260 513 196 z "},"9":{"ha":864,"x_min":0,"x_max":0,"o":"m 432 1112 b 47 732 216 1112 47 938 b 367 383 47 536 200 383 b 432 391 389 383 410 386 l 214 0 l 466 0 b 817 729 775 548 817 589 b 432 1112 817 937 649 1112 z m 431 564 b 267 728 341 564 267 640 b 431 894 267 818 340 894 b 597 728 522 894 597 818 b 431 564 597 639 522 564 z "}," ":{"ha":407,"x_min":0,"x_max":0,"o":""},"A":{"ha":1080,"x_min":0,"x_max":0,"o":"m 828 0 l 1066 0 l 543 1120 l 536 1120 l 14 0 l 252 0 l 321 153 l 759 153 z m 407 340 l 541 632 l 673 340 z "},"a":{"ha":1080,"x_min":0,"x_max":0,"o":"m 828 0 l 1066 0 l 543 1120 l 536 1120 l 14 0 l 252 0 l 321 153 l 759 153 z m 407 340 l 541 632 l 673 340 z "},"Á":{"ha":1080,"x_min":0,"x_max":0,"o":"m 749 1405 l 559 1405 l 433 1183 l 588 1183 z m 828 0 l 1066 0 l 543 1120 l 536 1120 l 14 0 l 252 0 l 321 153 l 759 153 z m 407 340 l 541 632 l 673 340 z "},"á":{"ha":1080,"x_min":0,"x_max":0,"o":"m 749 1405 l 559 1405 l 433 1183 l 588 1183 z m 828 0 l 1066 0 l 543 1120 l 536 1120 l 14 0 l 252 0 l 321 153 l 759 153 z m 407 340 l 541 632 l 673 340 z "},"Ă":{"ha":1080,"x_min":0,"x_max":0,"o":"m 541 1196 b 738 1393 649 1196 738 1284 l 636 1393 b 541 1291 636 1337 593 1291 b 446 1393 488 1291 446 1337 l 344 1393 b 541 1196 344 1284 432 1196 z m 828 0 l 1066 0 l 543 1120 l 536 1120 l 14 0 l 252 0 l 321 153 l 759 153 z m 407 340 l 541 632 l 673 340 z "},"ă":{"ha":1080,"x_min":0,"x_max":0,"o":"m 541 1196 b 738 1393 649 1196 738 1284 l 636 1393 b 541 1291 636 1337 593 1291 b 446 1393 488 1291 446 1337 l 344 1393 b 541 1196 344 1284 432 1196 z m 828 0 l 1066 0 l 543 1120 l 536 1120 l 14 0 l 252 0 l 321 153 l 759 153 z m 407 340 l 541 632 l 673 340 z "},"Â":{"ha":1080,"x_min":0,"x_max":0,"o":"m 540 1293 l 641 1193 l 817 1193 l 600 1392 l 479 1392 l 265 1193 l 439 1193 z m 828 0 l 1066 0 l 543 1120 l 536 1120 l 14 0 l 252 0 l 321 153 l 759 153 z m 407 340 l 541 632 l 673 340 z "},"â":{"ha":1080,"x_min":0,"x_max":0,"o":"m 540 1293 l 641 1193 l 817 1193 l 600 1392 l 479 1392 l 265 1193 l 439 1193 z m 828 0 l 1066 0 l 543 1120 l 536 1120 l 14 0 l 252 0 l 321 153 l 759 153 z m 407 340 l 541 632 l 673 340 z "},"Ä":{"ha":1080,"x_min":0,"x_max":0,"o":"m 389 1206 b 470 1287 433 1206 470 1242 b 389 1369 470 1331 433 1369 b 307 1287 344 1369 307 1331 b 389 1206 307 1242 344 1206 z m 692 1206 b 774 1287 737 1206 774 1242 b 692 1369 774 1331 737 1369 b 611 1287 648 1369 611 1331 b 692 1206 611 1242 648 1206 z m 828 0 l 1066 0 l 543 1120 l 536 1120 l 14 0 l 252 0 l 321 153 l 759 153 z m 407 340 l 541 632 l 673 340 z "},"ä":{"ha":1080,"x_min":0,"x_max":0,"o":"m 389 1206 b 470 1287 433 1206 470 1242 b 389 1369 470 1331 433 1369 b 307 1287 344 1369 307 1331 b 389 1206 307 1242 344 1206 z m 692 1206 b 774 1287 737 1206 774 1242 b 692 1369 774 1331 737 1369 b 611 1287 648 1369 611 1331 b 692 1206 611 1242 648 1206 z m 828 0 l 1066 0 l 543 1120 l 536 1120 l 14 0 l 252 0 l 321 153 l 759 153 z m 407 340 l 541 632 l 673 340 z "},"À":{"ha":1080,"x_min":0,"x_max":0,"o":"m 699 1183 l 572 1405 l 382 1405 l 544 1183 z m 828 0 l 1066 0 l 543 1120 l 536 1120 l 14 0 l 252 0 l 321 153 l 759 153 z m 407 340 l 541 632 l 673 340 z "},"à":{"ha":1080,"x_min":0,"x_max":0,"o":"m 699 1183 l 572 1405 l 382 1405 l 544 1183 z m 828 0 l 1066 0 l 543 1120 l 536 1120 l 14 0 l 252 0 l 321 153 l 759 153 z m 407 340 l 541 632 l 673 340 z "},"Ā":{"ha":1080,"x_min":0,"x_max":0,"o":"m 738 1336 l 343 1336 l 343 1226 l 738 1226 z m 828 0 l 1066 0 l 543 1120 l 536 1120 l 14 0 l 252 0 l 321 153 l 759 153 z m 407 340 l 541 632 l 673 340 z "},"ā":{"ha":1080,"x_min":0,"x_max":0,"o":"m 738 1336 l 343 1336 l 343 1226 l 738 1226 z m 828 0 l 1066 0 l 543 1120 l 536 1120 l 14 0 l 252 0 l 321 153 l 759 153 z m 407 340 l 541 632 l 673 340 z "},"Ą":{"ha":1080,"x_min":0,"x_max":0,"o":"m 948 -221 b 899 -165 903 -221 899 -180 b 1039 0 899 -114 943 -70 l 1066 0 l 543 1120 l 536 1120 l 14 0 l 252 0 l 321 153 l 759 153 l 828 0 l 890 0 b 744 -217 808 -41 744 -121 b 936 -376 744 -316 812 -376 b 1048 -362 968 -376 1006 -372 l 1025 -210 b 948 -221 991 -218 961 -221 z m 407 340 l 541 632 l 673 340 z "},"ą":{"ha":1080,"x_min":0,"x_max":0,"o":"m 948 -221 b 899 -165 903 -221 899 -180 b 1039 0 899 -114 943 -70 l 1066 0 l 543 1120 l 536 1120 l 14 0 l 252 0 l 321 153 l 759 153 l 828 0 l 890 0 b 744 -217 808 -41 744 -121 b 936 -376 744 -316 812 -376 b 1048 -362 968 -376 1006 -372 l 1025 -210 b 948 -221 991 -218 961 -221 z m 407 340 l 541 632 l 673 340 z "},"Å":{"ha":1080,"x_min":0,"x_max":0,"o":"m 541 1158 b 691 1309 623 1158 691 1227 b 541 1459 691 1391 623 1459 b 391 1309 458 1459 391 1392 b 541 1158 391 1226 458 1158 z m 541 1370 b 602 1308 575 1370 602 1342 b 541 1247 602 1274 575 1247 b 479 1308 507 1247 479 1274 b 541 1370 479 1342 507 1370 z m 828 0 l 1066 0 l 543 1120 l 536 1120 l 14 0 l 252 0 l 321 153 l 759 153 z m 407 340 l 541 632 l 673 340 z "},"å":{"ha":1080,"x_min":0,"x_max":0,"o":"m 541 1158 b 691 1309 623 1158 691 1227 b 541 1459 691 1391 623 1459 b 391 1309 458 1459 391 1392 b 541 1158 391 1226 458 1158 z m 541 1370 b 602 1308 575 1370 602 1342 b 541 1247 602 1274 575 1247 b 479 1308 507 1247 479 1274 b 541 1370 479 1342 507 1370 z m 828 0 l 1066 0 l 543 1120 l 536 1120 l 14 0 l 252 0 l 321 153 l 759 153 z m 407 340 l 541 632 l 673 340 z "},"Ã":{"ha":1080,"x_min":0,"x_max":0,"o":"m 437 1286 b 644 1200 505 1286 541 1200 b 819 1358 692 1200 790 1215 l 714 1398 b 644 1312 703 1349 685 1312 b 437 1398 576 1312 541 1398 b 262 1240 389 1398 291 1383 l 367 1200 b 437 1286 378 1249 395 1286 z m 828 0 l 1066 0 l 543 1120 l 536 1120 l 14 0 l 252 0 l 321 153 l 759 153 z m 407 340 l 541 632 l 673 340 z "},"ã":{"ha":1080,"x_min":0,"x_max":0,"o":"m 437 1286 b 644 1200 505 1286 541 1200 b 819 1358 692 1200 790 1215 l 714 1398 b 644 1312 703 1349 685 1312 b 437 1398 576 1312 541 1398 b 262 1240 389 1398 291 1383 l 367 1200 b 437 1286 378 1249 395 1286 z m 828 0 l 1066 0 l 543 1120 l 536 1120 l 14 0 l 252 0 l 321 153 l 759 153 z m 407 340 l 541 632 l 673 340 z "},"Æ":{"ha":1391,"x_min":0,"x_max":0,"o":"m 1324 877 l 1324 1093 l 546 1093 l 14 0 l 251 0 l 334 168 l 665 168 l 665 0 l 1324 0 l 1324 218 l 885 218 l 885 444 l 1262 444 l 1262 663 l 885 663 l 885 877 z m 431 363 l 665 835 l 665 363 z "},"æ":{"ha":1391,"x_min":0,"x_max":0,"o":"m 1324 877 l 1324 1093 l 546 1093 l 14 0 l 251 0 l 334 168 l 665 168 l 665 0 l 1324 0 l 1324 218 l 885 218 l 885 444 l 1262 444 l 1262 663 l 885 663 l 885 877 z m 431 363 l 665 835 l 665 363 z "},"B":{"ha":878,"x_min":0,"x_max":0,"o":"m 608 616 b 711 804 634 616 711 688 b 393 1093 711 951 587 1093 l 95 1093 l 95 0 l 508 0 b 849 332 733 0 849 170 b 608 616 849 507 713 616 z m 407 880 b 506 774 458 880 506 836 b 403 666 506 711 455 666 l 314 666 l 314 880 z m 488 214 l 314 214 l 314 473 l 487 473 b 635 347 591 473 635 410 b 488 214 635 263 559 214 z "},"b":{"ha":878,"x_min":0,"x_max":0,"o":"m 608 616 b 711 804 634 616 711 688 b 393 1093 711 951 587 1093 l 95 1093 l 95 0 l 508 0 b 849 332 733 0 849 170 b 608 616 849 507 713 616 z m 407 880 b 506 774 458 880 506 836 b 403 666 506 711 455 666 l 314 666 l 314 880 z m 488 214 l 314 214 l 314 473 l 487 473 b 635 347 591 473 635 410 b 488 214 635 263 559 214 z "},"C":{"ha":1027,"x_min":0,"x_max":0,"o":"m 619 -21 b 998 146 785 -21 902 51 l 872 324 b 612 199 800 253 713 199 b 270 545 444 199 270 350 b 613 892 270 736 437 892 b 871 774 707 892 797 847 l 998 947 b 615 1116 884 1057 758 1114 b 47 546 307 1116 47 854 b 619 -21 47 239 304 -21 z "},"c":{"ha":1027,"x_min":0,"x_max":0,"o":"m 619 -21 b 998 146 785 -21 902 51 l 872 324 b 612 199 800 253 713 199 b 270 545 444 199 270 350 b 613 892 270 736 437 892 b 871 774 707 892 797 847 l 998 947 b 615 1116 884 1057 758 1114 b 47 546 307 1116 47 854 b 619 -21 47 239 304 -21 z "},"Ć":{"ha":1027,"x_min":0,"x_max":0,"o":"m 623 1183 l 785 1405 l 595 1405 l 468 1183 z m 619 -21 b 998 146 785 -21 902 51 l 872 324 b 612 199 800 253 713 199 b 270 545 444 199 270 350 b 613 892 270 736 437 892 b 871 774 707 892 797 847 l 998 947 b 615 1116 884 1057 758 1114 b 47 546 307 1116 47 854 b 619 -21 47 239 304 -21 z "},"ć":{"ha":1027,"x_min":0,"x_max":0,"o":"m 623 1183 l 785 1405 l 595 1405 l 468 1183 z m 619 -21 b 998 146 785 -21 902 51 l 872 324 b 612 199 800 253 713 199 b 270 545 444 199 270 350 b 613 892 270 736 437 892 b 871 774 707 892 797 847 l 998 947 b 615 1116 884 1057 758 1114 b 47 546 307 1116 47 854 b 619 -21 47 239 304 -21 z "},"Č":{"ha":1027,"x_min":0,"x_max":0,"o":"m 300 1392 l 514 1193 l 635 1193 l 852 1392 l 676 1392 l 575 1292 l 475 1392 z m 619 -21 b 998 146 785 -21 902 51 l 872 324 b 612 199 800 253 713 199 b 270 545 444 199 270 350 b 613 892 270 736 437 892 b 871 774 707 892 797 847 l 998 947 b 615 1116 884 1057 758 1114 b 47 546 307 1116 47 854 b 619 -21 47 239 304 -21 z "},"č":{"ha":1027,"x_min":0,"x_max":0,"o":"m 300 1392 l 514 1193 l 635 1193 l 852 1392 l 676 1392 l 575 1292 l 475 1392 z m 619 -21 b 998 146 785 -21 902 51 l 872 324 b 612 199 800 253 713 199 b 270 545 444 199 270 350 b 613 892 270 736 437 892 b 871 774 707 892 797 847 l 998 947 b 615 1116 884 1057 758 1114 b 47 546 307 1116 47 854 b 619 -21 47 239 304 -21 z "},"Ç":{"ha":1027,"x_min":0,"x_max":0,"o":"m 998 146 l 872 324 b 612 199 800 253 713 199 b 270 545 444 199 270 350 b 613 892 270 736 437 892 b 871 774 707 892 797 847 l 998 947 b 615 1116 884 1057 758 1114 b 47 546 307 1116 47 854 b 544 -16 47 264 264 21 l 471 -111 l 498 -146 b 532 -142 511 -144 523 -142 b 582 -178 569 -142 582 -160 b 404 -240 582 -215 530 -240 l 459 -373 b 731 -172 614 -373 731 -278 b 640 -64 731 -109 689 -64 b 611 -66 629 -64 622 -64 l 647 -20 b 998 146 798 -13 907 56 z "},"ç":{"ha":1027,"x_min":0,"x_max":0,"o":"m 998 146 l 872 324 b 612 199 800 253 713 199 b 270 545 444 199 270 350 b 613 892 270 736 437 892 b 871 774 707 892 797 847 l 998 947 b 615 1116 884 1057 758 1114 b 47 546 307 1116 47 854 b 544 -16 47 264 264 21 l 471 -111 l 498 -146 b 532 -142 511 -144 523 -142 b 582 -178 569 -142 582 -160 b 404 -240 582 -215 530 -240 l 459 -373 b 731 -172 614 -373 731 -278 b 640 -64 731 -109 689 -64 b 611 -66 629 -64 622 -64 l 647 -20 b 998 146 798 -13 907 56 z "},"Ċ":{"ha":1027,"x_min":0,"x_max":0,"o":"m 576 1204 b 671 1299 628 1204 671 1246 b 576 1394 671 1350 628 1394 b 481 1298 524 1394 481 1350 b 576 1204 481 1247 524 1204 z m 619 -21 b 998 146 785 -21 902 51 l 872 324 b 612 199 800 253 713 199 b 270 545 444 199 270 350 b 613 892 270 736 437 892 b 871 774 707 892 797 847 l 998 947 b 615 1116 884 1057 758 1114 b 47 546 307 1116 47 854 b 619 -21 47 239 304 -21 z "},"ċ":{"ha":1027,"x_min":0,"x_max":0,"o":"m 576 1204 b 671 1299 628 1204 671 1246 b 576 1394 671 1350 628 1394 b 481 1298 524 1394 481 1350 b 576 1204 481 1247 524 1204 z m 619 -21 b 998 146 785 -21 902 51 l 872 324 b 612 199 800 253 713 199 b 270 545 444 199 270 350 b 613 892 270 736 437 892 b 871 774 707 892 797 847 l 998 947 b 615 1116 884 1057 758 1114 b 47 546 307 1116 47 854 b 619 -21 47 239 304 -21 z "},"D":{"ha":1029,"x_min":0,"x_max":0,"o":"m 413 1093 l 95 1093 l 95 0 l 413 0 b 982 545 766 0 982 206 b 413 1093 982 886 766 1094 z m 414 219 l 314 219 l 314 876 l 412 876 b 760 546 629 876 760 751 b 414 219 760 342 629 219 z "},"d":{"ha":1029,"x_min":0,"x_max":0,"o":"m 413 1093 l 95 1093 l 95 0 l 413 0 b 982 545 766 0 982 206 b 413 1093 982 886 766 1094 z m 414 219 l 314 219 l 314 876 l 412 876 b 760 546 629 876 760 751 b 414 219 760 342 629 219 z "},"Ð":{"ha":1081,"x_min":0,"x_max":0,"o":"m 465 1093 l 146 1093 l 146 614 l 28 614 l 28 470 l 146 470 l 146 0 l 465 0 b 1034 545 818 0 1034 206 b 465 1093 1034 886 818 1094 z m 466 219 l 366 219 l 366 470 l 538 470 l 538 613 l 366 613 l 366 876 l 464 876 b 812 546 680 876 812 751 b 466 219 812 342 681 219 z "},"ð":{"ha":1081,"x_min":0,"x_max":0,"o":"m 465 1093 l 146 1093 l 146 614 l 28 614 l 28 470 l 146 470 l 146 0 l 465 0 b 1034 545 818 0 1034 206 b 465 1093 1034 886 818 1094 z m 466 219 l 366 219 l 366 470 l 538 470 l 538 613 l 366 613 l 366 876 l 464 876 b 812 546 680 876 812 751 b 466 219 812 342 681 219 z "},"Ď":{"ha":1029,"x_min":0,"x_max":0,"o":"m 574 1193 l 791 1392 l 615 1392 l 514 1292 l 414 1392 l 239 1392 l 453 1193 z m 413 1093 l 95 1093 l 95 0 l 413 0 b 982 545 766 0 982 206 b 413 1093 982 886 766 1094 z m 414 219 l 314 219 l 314 876 l 412 876 b 760 546 629 876 760 751 b 414 219 760 342 629 219 z "},"ď":{"ha":1029,"x_min":0,"x_max":0,"o":"m 574 1193 l 791 1392 l 615 1392 l 514 1292 l 414 1392 l 239 1392 l 453 1193 z m 413 1093 l 95 1093 l 95 0 l 413 0 b 982 545 766 0 982 206 b 413 1093 982 886 766 1094 z m 414 219 l 314 219 l 314 876 l 412 876 b 760 546 629 876 760 751 b 414 219 760 342 629 219 z "},"Đ":{"ha":1081,"x_min":0,"x_max":0,"o":"m 465 1093 l 146 1093 l 146 614 l 28 614 l 28 470 l 146 470 l 146 0 l 465 0 b 1034 545 818 0 1034 206 b 465 1093 1034 886 818 1094 z m 466 219 l 366 219 l 366 470 l 538 470 l 538 613 l 366 613 l 366 876 l 464 876 b 812 546 680 876 812 751 b 466 219 812 342 681 219 z "},"đ":{"ha":1081,"x_min":0,"x_max":0,"o":"m 465 1093 l 146 1093 l 146 614 l 28 614 l 28 470 l 146 470 l 146 0 l 465 0 b 1034 545 818 0 1034 206 b 465 1093 1034 886 818 1094 z m 466 219 l 366 219 l 366 470 l 538 470 l 538 613 l 366 613 l 366 876 l 464 876 b 812 546 680 876 812 751 b 466 219 812 342 681 219 z "},"E":{"ha":821,"x_min":0,"x_max":0,"o":"m 754 877 l 754 1093 l 95 1093 l 95 0 l 754 0 l 754 218 l 315 218 l 315 444 l 692 444 l 692 663 l 315 663 l 315 877 z "},"e":{"ha":821,"x_min":0,"x_max":0,"o":"m 754 877 l 754 1093 l 95 1093 l 95 0 l 754 0 l 754 218 l 315 218 l 315 444 l 692 444 l 692 663 l 315 663 l 315 877 z "},"É":{"ha":821,"x_min":0,"x_max":0,"o":"m 613 1405 l 423 1405 l 296 1183 l 452 1183 z m 754 877 l 754 1093 l 95 1093 l 95 0 l 754 0 l 754 218 l 315 218 l 315 444 l 692 444 l 692 663 l 315 663 l 315 877 z "},"é":{"ha":821,"x_min":0,"x_max":0,"o":"m 613 1405 l 423 1405 l 296 1183 l 452 1183 z m 754 877 l 754 1093 l 95 1093 l 95 0 l 754 0 l 754 218 l 315 218 l 315 444 l 692 444 l 692 663 l 315 663 l 315 877 z "},"Ĕ":{"ha":821,"x_min":0,"x_max":0,"o":"m 404 1196 b 602 1393 513 1196 602 1284 l 500 1393 b 404 1291 500 1337 457 1291 b 309 1393 352 1291 309 1337 l 208 1393 b 404 1196 208 1284 296 1196 z m 754 877 l 754 1093 l 95 1093 l 95 0 l 754 0 l 754 218 l 315 218 l 315 444 l 692 444 l 692 663 l 315 663 l 315 877 z "},"ĕ":{"ha":821,"x_min":0,"x_max":0,"o":"m 404 1196 b 602 1393 513 1196 602 1284 l 500 1393 b 404 1291 500 1337 457 1291 b 309 1393 352 1291 309 1337 l 208 1393 b 404 1196 208 1284 296 1196 z m 754 877 l 754 1093 l 95 1093 l 95 0 l 754 0 l 754 218 l 315 218 l 315 444 l 692 444 l 692 663 l 315 663 l 315 877 z "},"Ě":{"ha":821,"x_min":0,"x_max":0,"o":"m 464 1193 l 680 1392 l 505 1392 l 404 1292 l 303 1392 l 129 1392 l 342 1193 z m 754 877 l 754 1093 l 95 1093 l 95 0 l 754 0 l 754 218 l 315 218 l 315 444 l 692 444 l 692 663 l 315 663 l 315 877 z "},"ě":{"ha":821,"x_min":0,"x_max":0,"o":"m 464 1193 l 680 1392 l 505 1392 l 404 1292 l 303 1392 l 129 1392 l 342 1193 z m 754 877 l 754 1093 l 95 1093 l 95 0 l 754 0 l 754 218 l 315 218 l 315 444 l 692 444 l 692 663 l 315 663 l 315 877 z "},"Ê":{"ha":821,"x_min":0,"x_max":0,"o":"m 404 1293 l 505 1193 l 680 1193 l 464 1392 l 342 1392 l 129 1193 l 303 1193 z m 754 877 l 754 1093 l 95 1093 l 95 0 l 754 0 l 754 218 l 315 218 l 315 444 l 692 444 l 692 663 l 315 663 l 315 877 z "},"ê":{"ha":821,"x_min":0,"x_max":0,"o":"m 404 1293 l 505 1193 l 680 1193 l 464 1392 l 342 1392 l 129 1193 l 303 1193 z m 754 877 l 754 1093 l 95 1093 l 95 0 l 754 0 l 754 218 l 315 218 l 315 444 l 692 444 l 692 663 l 315 663 l 315 877 z "},"Ë":{"ha":821,"x_min":0,"x_max":0,"o":"m 252 1206 b 334 1287 296 1206 334 1242 b 252 1369 334 1331 296 1369 b 170 1287 208 1369 170 1331 b 252 1206 170 1242 208 1206 z m 556 1206 b 638 1287 601 1206 638 1242 b 556 1369 638 1331 601 1369 b 475 1287 512 1369 475 1331 b 556 1206 475 1242 511 1206 z m 754 877 l 754 1093 l 95 1093 l 95 0 l 754 0 l 754 218 l 315 218 l 315 444 l 692 444 l 692 663 l 315 663 l 315 877 z "},"ë":{"ha":821,"x_min":0,"x_max":0,"o":"m 252 1206 b 334 1287 296 1206 334 1242 b 252 1369 334 1331 296 1369 b 170 1287 208 1369 170 1331 b 252 1206 170 1242 208 1206 z m 556 1206 b 638 1287 601 1206 638 1242 b 556 1369 638 1331 601 1369 b 475 1287 512 1369 475 1331 b 556 1206 475 1242 511 1206 z m 754 877 l 754 1093 l 95 1093 l 95 0 l 754 0 l 754 218 l 315 218 l 315 444 l 692 444 l 692 663 l 315 663 l 315 877 z "},"Ė":{"ha":821,"x_min":0,"x_max":0,"o":"m 405 1204 b 500 1299 456 1204 500 1246 b 405 1394 500 1350 456 1394 b 310 1298 353 1394 310 1350 b 405 1204 310 1247 352 1204 z m 754 877 l 754 1093 l 95 1093 l 95 0 l 754 0 l 754 218 l 315 218 l 315 444 l 692 444 l 692 663 l 315 663 l 315 877 z "},"ė":{"ha":821,"x_min":0,"x_max":0,"o":"m 405 1204 b 500 1299 456 1204 500 1246 b 405 1394 500 1350 456 1394 b 310 1298 353 1394 310 1350 b 405 1204 310 1247 352 1204 z m 754 877 l 754 1093 l 95 1093 l 95 0 l 754 0 l 754 218 l 315 218 l 315 444 l 692 444 l 692 663 l 315 663 l 315 877 z "},"È":{"ha":821,"x_min":0,"x_max":0,"o":"m 563 1183 l 436 1405 l 246 1405 l 408 1183 z m 754 877 l 754 1093 l 95 1093 l 95 0 l 754 0 l 754 218 l 315 218 l 315 444 l 692 444 l 692 663 l 315 663 l 315 877 z "},"è":{"ha":821,"x_min":0,"x_max":0,"o":"m 563 1183 l 436 1405 l 246 1405 l 408 1183 z m 754 877 l 754 1093 l 95 1093 l 95 0 l 754 0 l 754 218 l 315 218 l 315 444 l 692 444 l 692 663 l 315 663 l 315 877 z "},"Ē":{"ha":821,"x_min":0,"x_max":0,"o":"m 602 1336 l 207 1336 l 207 1226 l 602 1226 z m 754 877 l 754 1093 l 95 1093 l 95 0 l 754 0 l 754 218 l 315 218 l 315 444 l 692 444 l 692 663 l 315 663 l 315 877 z "},"ē":{"ha":821,"x_min":0,"x_max":0,"o":"m 602 1336 l 207 1336 l 207 1226 l 602 1226 z m 754 877 l 754 1093 l 95 1093 l 95 0 l 754 0 l 754 218 l 315 218 l 315 444 l 692 444 l 692 663 l 315 663 l 315 877 z "},"Ę":{"ha":821,"x_min":0,"x_max":0,"o":"m 740 -210 b 663 -221 707 -218 676 -221 b 614 -165 618 -221 614 -180 b 754 0 614 -114 659 -70 l 754 218 l 315 218 l 315 444 l 692 444 l 692 663 l 315 663 l 315 877 l 754 877 l 754 1093 l 95 1093 l 95 0 l 606 0 b 459 -217 524 -41 459 -121 b 651 -376 459 -316 528 -376 b 764 -362 684 -376 722 -372 z "},"ę":{"ha":821,"x_min":0,"x_max":0,"o":"m 740 -210 b 663 -221 707 -218 676 -221 b 614 -165 618 -221 614 -180 b 754 0 614 -114 659 -70 l 754 218 l 315 218 l 315 444 l 692 444 l 692 663 l 315 663 l 315 877 l 754 877 l 754 1093 l 95 1093 l 95 0 l 606 0 b 459 -217 524 -41 459 -121 b 651 -376 459 -316 528 -376 b 764 -362 684 -376 722 -372 z "},"F":{"ha":783,"x_min":0,"x_max":0,"o":"m 754 877 l 754 1096 l 95 1096 l 95 -1 l 315 -1 l 315 437 l 692 437 l 692 656 l 315 656 l 315 877 z "},"f":{"ha":783,"x_min":0,"x_max":0,"o":"m 754 877 l 754 1096 l 95 1096 l 95 -1 l 315 -1 l 315 437 l 692 437 l 692 656 l 315 656 l 315 877 z "},"G":{"ha":1192,"x_min":0,"x_max":0,"o":"m 1139 614 l 625 614 l 625 411 l 908 411 b 633 199 901 279 789 199 b 271 545 419 199 271 355 b 612 893 271 749 443 893 b 893 762 710 893 808 846 l 1015 945 b 615 1116 908 1049 757 1114 b 47 545 302 1116 47 858 b 623 -22 47 233 301 -22 b 1145 522 908 -22 1145 178 b 1139 614 1145 551 1143 582 z "},"g":{"ha":1192,"x_min":0,"x_max":0,"o":"m 1139 614 l 625 614 l 625 411 l 908 411 b 633 199 901 279 789 199 b 271 545 419 199 271 355 b 612 893 271 749 443 893 b 893 762 710 893 808 846 l 1015 945 b 615 1116 908 1049 757 1114 b 47 545 302 1116 47 858 b 623 -22 47 233 301 -22 b 1145 522 908 -22 1145 178 b 1139 614 1145 551 1143 582 z "},"Ğ":{"ha":1192,"x_min":0,"x_max":0,"o":"m 615 1196 b 812 1393 724 1196 812 1284 l 711 1393 b 615 1291 711 1337 668 1291 b 520 1393 563 1291 520 1337 l 418 1393 b 615 1196 418 1284 507 1196 z m 1139 614 l 625 614 l 625 411 l 908 411 b 633 199 901 279 789 199 b 271 545 419 199 271 355 b 612 893 271 749 443 893 b 893 762 710 893 808 846 l 1015 945 b 615 1116 908 1049 757 1114 b 47 545 302 1116 47 858 b 623 -22 47 233 301 -22 b 1145 522 908 -22 1145 178 b 1139 614 1145 551 1143 582 z "},"ğ":{"ha":1192,"x_min":0,"x_max":0,"o":"m 615 1196 b 812 1393 724 1196 812 1284 l 711 1393 b 615 1291 711 1337 668 1291 b 520 1393 563 1291 520 1337 l 418 1393 b 615 1196 418 1284 507 1196 z m 1139 614 l 625 614 l 625 411 l 908 411 b 633 199 901 279 789 199 b 271 545 419 199 271 355 b 612 893 271 749 443 893 b 893 762 710 893 808 846 l 1015 945 b 615 1116 908 1049 757 1114 b 47 545 302 1116 47 858 b 623 -22 47 233 301 -22 b 1145 522 908 -22 1145 178 b 1139 614 1145 551 1143 582 z "},"Ģ":{"ha":1192,"x_min":0,"x_max":0,"o":"m 1139 614 l 625 614 l 625 411 l 908 411 b 633 199 901 279 789 199 b 271 545 419 199 271 355 b 612 893 271 749 443 893 b 893 762 710 893 808 846 l 1015 945 b 615 1116 908 1049 757 1114 b 47 545 302 1116 47 858 b 623 -22 47 233 301 -22 b 1145 522 908 -22 1145 178 b 1139 614 1145 551 1143 582 z m 617 -78 b 517 -166 559 -78 517 -119 b 600 -242 517 -216 566 -242 b 608 -273 606 -250 608 -256 b 513 -355 608 -330 549 -355 b 566 -378 513 -361 532 -378 b 720 -199 658 -378 720 -290 b 617 -78 720 -120 673 -78 z "},"ģ":{"ha":1192,"x_min":0,"x_max":0,"o":"m 1139 614 l 625 614 l 625 411 l 908 411 b 633 199 901 279 789 199 b 271 545 419 199 271 355 b 612 893 271 749 443 893 b 893 762 710 893 808 846 l 1015 945 b 615 1116 908 1049 757 1114 b 47 545 302 1116 47 858 b 623 -22 47 233 301 -22 b 1145 522 908 -22 1145 178 b 1139 614 1145 551 1143 582 z m 617 -78 b 517 -166 559 -78 517 -119 b 600 -242 517 -216 566 -242 b 608 -273 606 -250 608 -256 b 513 -355 608 -330 549 -355 b 566 -378 513 -361 532 -378 b 720 -199 658 -378 720 -290 b 617 -78 720 -120 673 -78 z "},"Ġ":{"ha":1192,"x_min":0,"x_max":0,"o":"m 616 1204 b 711 1299 667 1204 711 1246 b 616 1394 711 1350 667 1394 b 521 1298 564 1394 521 1350 b 616 1204 521 1247 563 1204 z m 1139 614 l 625 614 l 625 411 l 908 411 b 633 199 901 279 789 199 b 271 545 419 199 271 355 b 612 893 271 749 443 893 b 893 762 710 893 808 846 l 1015 945 b 615 1116 908 1049 757 1114 b 47 545 302 1116 47 858 b 623 -22 47 233 301 -22 b 1145 522 908 -22 1145 178 b 1139 614 1145 551 1143 582 z "},"ġ":{"ha":1192,"x_min":0,"x_max":0,"o":"m 616 1204 b 711 1299 667 1204 711 1246 b 616 1394 711 1350 667 1394 b 521 1298 564 1394 521 1350 b 616 1204 521 1247 563 1204 z m 1139 614 l 625 614 l 625 411 l 908 411 b 633 199 901 279 789 199 b 271 545 419 199 271 355 b 612 893 271 749 443 893 b 893 762 710 893 808 846 l 1015 945 b 615 1116 908 1049 757 1114 b 47 545 302 1116 47 858 b 623 -22 47 233 301 -22 b 1145 522 908 -22 1145 178 b 1139 614 1145 551 1143 582 z "},"H":{"ha":1021,"x_min":0,"x_max":0,"o":"m 707 1093 l 707 656 l 314 656 l 314 1093 l 95 1093 l 95 0 l 314 0 l 314 438 l 707 438 l 707 0 l 926 0 l 926 1093 z "},"h":{"ha":1021,"x_min":0,"x_max":0,"o":"m 707 1093 l 707 656 l 314 656 l 314 1093 l 95 1093 l 95 0 l 314 0 l 314 438 l 707 438 l 707 0 l 926 0 l 926 1093 z "},"Ħ":{"ha":1021,"x_min":0,"x_max":0,"o":"m 1008 919 l 926 919 l 926 1093 l 707 1093 l 707 919 l 314 919 l 314 1093 l 95 1093 l 95 919 l 13 919 l 13 763 l 95 763 l 95 0 l 314 0 l 314 438 l 707 438 l 707 0 l 926 0 l 926 763 l 1008 763 z m 707 656 l 314 656 l 314 763 l 707 763 z "},"ħ":{"ha":1021,"x_min":0,"x_max":0,"o":"m 1008 919 l 926 919 l 926 1093 l 707 1093 l 707 919 l 314 919 l 314 1093 l 95 1093 l 95 919 l 13 919 l 13 763 l 95 763 l 95 0 l 314 0 l 314 438 l 707 438 l 707 0 l 926 0 l 926 763 l 1008 763 z m 707 656 l 314 656 l 314 763 l 707 763 z "},"I":{"ha":410,"x_min":0,"x_max":0,"o":"m 95 0 l 315 0 l 315 1093 l 95 1093 z "},"Í":{"ha":410,"x_min":0,"x_max":0,"o":"m 252 1183 l 414 1405 l 224 1405 l 97 1183 z m 95 0 l 315 0 l 315 1093 l 95 1093 z "},"í":{"ha":410,"x_min":0,"x_max":0,"o":"m 252 1183 l 414 1405 l 224 1405 l 97 1183 z m 95 0 l 315 0 l 315 1093 l 95 1093 z "},"Î":{"ha":410,"x_min":0,"x_max":0,"o":"m -71 1193 l 103 1193 l 203 1293 l 304 1193 l 480 1193 l 264 1392 l 142 1392 z m 95 0 l 315 0 l 315 1093 l 95 1093 z "},"î":{"ha":410,"x_min":0,"x_max":0,"o":"m -71 1193 l 103 1193 l 203 1293 l 304 1193 l 480 1193 l 264 1392 l 142 1392 z m 95 0 l 315 0 l 315 1093 l 95 1093 z "},"Ï":{"ha":410,"x_min":0,"x_max":0,"o":"m 53 1206 b 134 1287 97 1206 134 1242 b 53 1369 134 1331 97 1369 b -29 1287 8 1369 -29 1331 b 53 1206 -29 1242 8 1206 z m 357 1206 b 439 1287 401 1206 439 1242 b 357 1369 439 1331 401 1369 b 275 1287 313 1369 275 1331 b 357 1206 275 1242 312 1206 z m 95 0 l 315 0 l 315 1093 l 95 1093 z "},"ï":{"ha":410,"x_min":0,"x_max":0,"o":"m 53 1206 b 134 1287 97 1206 134 1242 b 53 1369 134 1331 97 1369 b -29 1287 8 1369 -29 1331 b 53 1206 -29 1242 8 1206 z m 357 1206 b 439 1287 401 1206 439 1242 b 357 1369 439 1331 401 1369 b 275 1287 313 1369 275 1331 b 357 1206 275 1242 312 1206 z m 95 0 l 315 0 l 315 1093 l 95 1093 z "},"İ":{"ha":410,"x_min":0,"x_max":0,"o":"m 205 1204 b 300 1299 257 1204 300 1246 b 205 1394 300 1350 257 1394 b 111 1298 153 1394 111 1350 b 205 1204 111 1247 153 1204 z m 95 0 l 315 0 l 315 1093 l 95 1093 z "},"Ì":{"ha":410,"x_min":0,"x_max":0,"o":"m 208 1183 l 363 1183 l 237 1405 l 47 1405 z m 95 0 l 315 0 l 315 1093 l 95 1093 z "},"ì":{"ha":410,"x_min":0,"x_max":0,"o":"m 208 1183 l 363 1183 l 237 1405 l 47 1405 z m 95 0 l 315 0 l 315 1093 l 95 1093 z "},"Ī":{"ha":410,"x_min":0,"x_max":0,"o":"m 7 1226 l 402 1226 l 402 1336 l 7 1336 z m 95 0 l 315 0 l 315 1093 l 95 1093 z "},"ī":{"ha":410,"x_min":0,"x_max":0,"o":"m 7 1226 l 402 1226 l 402 1336 l 7 1336 z m 95 0 l 315 0 l 315 1093 l 95 1093 z "},"Į":{"ha":410,"x_min":0,"x_max":0,"o":"m 300 -210 b 224 -221 267 -218 237 -221 b 175 -165 178 -221 175 -180 b 315 0 175 -114 219 -70 l 315 1093 l 95 1093 l 95 0 l 166 0 b 20 -217 84 -41 20 -121 b 212 -376 20 -316 88 -376 b 324 -362 244 -376 282 -372 z "},"į":{"ha":410,"x_min":0,"x_max":0,"o":"m 300 -210 b 224 -221 267 -218 237 -221 b 175 -165 178 -221 175 -180 b 315 0 175 -114 219 -70 l 315 1093 l 95 1093 l 95 0 l 166 0 b 20 -217 84 -41 20 -121 b 212 -376 20 -316 88 -376 b 324 -362 244 -376 282 -372 z "},"J":{"ha":803,"x_min":0,"x_max":0,"o":"m 274 -24 l 281 -24 b 718 414 524 -24 718 168 l 713 1093 l 494 1093 l 498 415 b 280 195 498 297 401 195 l 275 195 b 140 243 219 195 178 212 l 28 51 b 274 -24 100 1 182 -24 z "},"j":{"ha":803,"x_min":0,"x_max":0,"o":"m 274 -24 l 281 -24 b 718 414 524 -24 718 168 l 713 1093 l 494 1093 l 498 415 b 280 195 498 297 401 195 l 275 195 b 140 243 219 195 178 212 l 28 51 b 274 -24 100 1 182 -24 z "},"K":{"ha":923,"x_min":0,"x_max":0,"o":"m 913 0 l 524 558 l 875 1093 l 621 1093 l 314 621 l 314 1093 l 95 1093 l 95 0 l 314 0 l 314 479 l 646 0 z "},"k":{"ha":923,"x_min":0,"x_max":0,"o":"m 913 0 l 524 558 l 875 1093 l 621 1093 l 314 621 l 314 1093 l 95 1093 l 95 0 l 314 0 l 314 479 l 646 0 z "},"Ķ":{"ha":923,"x_min":0,"x_max":0,"o":"m 524 558 l 875 1093 l 621 1093 l 314 621 l 314 1093 l 95 1093 l 95 0 l 314 0 l 314 479 l 646 0 l 913 0 z m 479 -78 b 379 -166 421 -78 379 -119 b 463 -242 379 -216 429 -242 b 471 -273 469 -250 471 -256 b 376 -355 471 -330 412 -355 b 428 -378 376 -361 395 -378 b 582 -199 520 -378 582 -290 b 479 -78 582 -120 535 -78 z "},"ķ":{"ha":923,"x_min":0,"x_max":0,"o":"m 524 558 l 875 1093 l 621 1093 l 314 621 l 314 1093 l 95 1093 l 95 0 l 314 0 l 314 479 l 646 0 l 913 0 z m 479 -78 b 379 -166 421 -78 379 -119 b 463 -242 379 -216 429 -242 b 471 -273 469 -250 471 -256 b 376 -355 471 -330 412 -355 b 428 -378 376 -361 395 -378 b 582 -199 520 -378 582 -290 b 479 -78 582 -120 535 -78 z "},"L":{"ha":783,"x_min":0,"x_max":0,"o":"m 315 218 l 315 1093 l 95 1093 l 95 0 l 754 0 l 754 218 z "},"l":{"ha":783,"x_min":0,"x_max":0,"o":"m 315 218 l 315 1093 l 95 1093 l 95 0 l 754 0 l 754 218 z "},"Ĺ":{"ha":783,"x_min":0,"x_max":0,"o":"m 613 1405 l 423 1405 l 296 1183 l 452 1183 z m 315 218 l 315 1093 l 95 1093 l 95 0 l 754 0 l 754 218 z "},"ĺ":{"ha":783,"x_min":0,"x_max":0,"o":"m 613 1405 l 423 1405 l 296 1183 l 452 1183 z m 315 218 l 315 1093 l 95 1093 l 95 0 l 754 0 l 754 218 z "},"Ľ":{"ha":783,"x_min":0,"x_max":0,"o":"m 624 1138 l 454 1138 l 407 819 l 543 819 z m 315 218 l 315 1093 l 95 1093 l 95 0 l 754 0 l 754 218 z "},"ľ":{"ha":783,"x_min":0,"x_max":0,"o":"m 624 1138 l 454 1138 l 407 819 l 543 819 z m 315 218 l 315 1093 l 95 1093 l 95 0 l 754 0 l 754 218 z "},"Ļ":{"ha":783,"x_min":0,"x_max":0,"o":"m 315 218 l 315 1093 l 95 1093 l 95 0 l 754 0 l 754 218 z m 406 -78 b 306 -166 348 -78 306 -119 b 389 -242 306 -216 355 -242 b 397 -273 395 -250 397 -256 b 302 -355 397 -330 338 -355 b 355 -378 302 -361 321 -378 b 509 -199 447 -378 509 -290 b 406 -78 509 -120 462 -78 z "},"ļ":{"ha":783,"x_min":0,"x_max":0,"o":"m 315 218 l 315 1093 l 95 1093 l 95 0 l 754 0 l 754 218 z m 406 -78 b 306 -166 348 -78 306 -119 b 389 -242 306 -216 355 -242 b 397 -273 395 -250 397 -256 b 302 -355 397 -330 338 -355 b 355 -378 302 -361 321 -378 b 509 -199 447 -378 509 -290 b 406 -78 509 -120 462 -78 z "},"Ł":{"ha":783,"x_min":0,"x_max":0,"o":"m 315 218 l 315 524 l 449 621 l 449 793 l 315 696 l 315 1093 l 95 1093 l 95 537 l -31 446 l -31 275 l 95 366 l 95 0 l 754 0 l 754 218 z "},"ł":{"ha":783,"x_min":0,"x_max":0,"o":"m 315 218 l 315 524 l 449 621 l 449 793 l 315 696 l 315 1093 l 95 1093 l 95 537 l -31 446 l -31 275 l 95 366 l 95 0 l 754 0 l 754 218 z "},"M":{"ha":1261,"x_min":0,"x_max":0,"o":"m 1154 1120 l 631 398 l 107 1120 l 95 1120 l 95 0 l 315 0 l 315 476 l 630 18 l 631 18 l 946 476 l 946 0 l 1166 0 l 1166 1120 z "},"m":{"ha":1261,"x_min":0,"x_max":0,"o":"m 1154 1120 l 631 398 l 107 1120 l 95 1120 l 95 0 l 315 0 l 315 476 l 630 18 l 631 18 l 946 476 l 946 0 l 1166 0 l 1166 1120 z "},"N":{"ha":1069,"x_min":0,"x_max":0,"o":"m 753 1096 l 753 484 l 106 1114 l 95 1114 l 95 -1 l 315 -1 l 315 611 l 964 -20 l 974 -20 l 974 1096 z "},"n":{"ha":1069,"x_min":0,"x_max":0,"o":"m 753 1096 l 753 484 l 106 1114 l 95 1114 l 95 -1 l 315 -1 l 315 611 l 964 -20 l 974 -20 l 974 1096 z "},"Ń":{"ha":1069,"x_min":0,"x_max":0,"o":"m 743 1405 l 553 1405 l 427 1183 l 582 1183 z m 753 1096 l 753 484 l 106 1114 l 95 1114 l 95 -1 l 315 -1 l 315 611 l 964 -20 l 974 -20 l 974 1096 z "},"ń":{"ha":1069,"x_min":0,"x_max":0,"o":"m 743 1405 l 553 1405 l 427 1183 l 582 1183 z m 753 1096 l 753 484 l 106 1114 l 95 1114 l 95 -1 l 315 -1 l 315 611 l 964 -20 l 974 -20 l 974 1096 z "},"Ň":{"ha":1069,"x_min":0,"x_max":0,"o":"m 594 1193 l 810 1392 l 635 1392 l 534 1292 l 433 1392 l 259 1392 l 473 1193 z m 753 1096 l 753 484 l 106 1114 l 95 1114 l 95 -1 l 315 -1 l 315 611 l 964 -20 l 974 -20 l 974 1096 z "},"ň":{"ha":1069,"x_min":0,"x_max":0,"o":"m 594 1193 l 810 1392 l 635 1392 l 534 1292 l 433 1392 l 259 1392 l 473 1193 z m 753 1096 l 753 484 l 106 1114 l 95 1114 l 95 -1 l 315 -1 l 315 611 l 964 -20 l 974 -20 l 974 1096 z "},"Ņ":{"ha":1069,"x_min":0,"x_max":0,"o":"m 753 1096 l 753 484 l 106 1114 l 95 1114 l 95 -1 l 315 -1 l 315 611 l 964 -20 l 974 -20 l 974 1096 z m 536 -78 b 436 -166 478 -78 436 -119 b 519 -242 436 -216 486 -242 b 528 -273 526 -250 528 -256 b 433 -355 528 -330 469 -355 b 485 -378 433 -361 452 -378 b 639 -199 577 -378 639 -290 b 536 -78 639 -120 592 -78 z "},"ņ":{"ha":1069,"x_min":0,"x_max":0,"o":"m 753 1096 l 753 484 l 106 1114 l 95 1114 l 95 -1 l 315 -1 l 315 611 l 964 -20 l 974 -20 l 974 1096 z m 536 -78 b 436 -166 478 -78 436 -119 b 519 -242 436 -216 486 -242 b 528 -273 526 -250 528 -256 b 433 -355 528 -330 469 -355 b 485 -378 433 -361 452 -378 b 639 -199 577 -378 639 -290 b 536 -78 639 -120 592 -78 z "},"Ŋ":{"ha":1069,"x_min":0,"x_max":0,"o":"m 753 1096 l 753 484 l 106 1114 l 95 1114 l 95 -1 l 315 -1 l 315 611 l 765 173 l 765 -26 b 650 -234 765 -136 727 -192 l 793 -345 b 974 -22 908 -269 974 -155 l 974 1096 z "},"ŋ":{"ha":1069,"x_min":0,"x_max":0,"o":"m 753 1096 l 753 484 l 106 1114 l 95 1114 l 95 -1 l 315 -1 l 315 611 l 765 173 l 765 -26 b 650 -234 765 -136 727 -192 l 793 -345 b 974 -22 908 -269 974 -155 l 974 1096 z "},"Ñ":{"ha":1069,"x_min":0,"x_max":0,"o":"m 431 1286 b 637 1200 499 1286 534 1200 b 813 1358 686 1200 784 1215 l 708 1398 b 637 1312 697 1349 679 1312 b 431 1398 570 1312 534 1398 b 256 1240 383 1398 285 1383 l 361 1200 b 431 1286 372 1249 389 1286 z m 753 1096 l 753 484 l 106 1114 l 95 1114 l 95 -1 l 315 -1 l 315 611 l 964 -20 l 974 -20 l 974 1096 z "},"ñ":{"ha":1069,"x_min":0,"x_max":0,"o":"m 431 1286 b 637 1200 499 1286 534 1200 b 813 1358 686 1200 784 1215 l 708 1398 b 637 1312 697 1349 679 1312 b 431 1398 570 1312 534 1398 b 256 1240 383 1398 285 1383 l 361 1200 b 431 1286 372 1249 389 1286 z m 753 1096 l 753 484 l 106 1114 l 95 1114 l 95 -1 l 315 -1 l 315 611 l 964 -20 l 974 -20 l 974 1096 z "},"O":{"ha":1232,"x_min":0,"x_max":0,"o":"m 615 -21 b 1185 545 928 -21 1185 234 b 616 1116 1185 859 928 1116 b 47 545 303 1116 47 859 b 615 -21 47 234 303 -21 z m 615 201 b 269 547 425 201 269 357 b 615 894 269 738 425 894 b 962 547 806 894 962 738 b 615 201 962 357 806 201 z "},"o":{"ha":1232,"x_min":0,"x_max":0,"o":"m 615 -21 b 1185 545 928 -21 1185 234 b 616 1116 1185 859 928 1116 b 47 545 303 1116 47 859 b 615 -21 47 234 303 -21 z m 615 201 b 269 547 425 201 269 357 b 615 894 269 738 425 894 b 962 547 806 894 962 738 b 615 201 962 357 806 201 z "},"Ó":{"ha":1232,"x_min":0,"x_max":0,"o":"m 663 1183 l 825 1405 l 635 1405 l 508 1183 z m 615 -21 b 1185 545 928 -21 1185 234 b 616 1116 1185 859 928 1116 b 47 545 303 1116 47 859 b 615 -21 47 234 303 -21 z m 615 201 b 269 547 425 201 269 357 b 615 894 269 738 425 894 b 962 547 806 894 962 738 b 615 201 962 357 806 201 z "},"ó":{"ha":1232,"x_min":0,"x_max":0,"o":"m 663 1183 l 825 1405 l 635 1405 l 508 1183 z m 615 -21 b 1185 545 928 -21 1185 234 b 616 1116 1185 859 928 1116 b 47 545 303 1116 47 859 b 615 -21 47 234 303 -21 z m 615 201 b 269 547 425 201 269 357 b 615 894 269 738 425 894 b 962 547 806 894 962 738 b 615 201 962 357 806 201 z "},"Ô":{"ha":1232,"x_min":0,"x_max":0,"o":"m 340 1193 l 515 1193 l 615 1293 l 716 1193 l 892 1193 l 675 1392 l 554 1392 z m 615 -21 b 1185 545 928 -21 1185 234 b 616 1116 1185 859 928 1116 b 47 545 303 1116 47 859 b 615 -21 47 234 303 -21 z m 615 201 b 269 547 425 201 269 357 b 615 894 269 738 425 894 b 962 547 806 894 962 738 b 615 201 962 357 806 201 z "},"ô":{"ha":1232,"x_min":0,"x_max":0,"o":"m 340 1193 l 515 1193 l 615 1293 l 716 1193 l 892 1193 l 675 1392 l 554 1392 z m 615 -21 b 1185 545 928 -21 1185 234 b 616 1116 1185 859 928 1116 b 47 545 303 1116 47 859 b 615 -21 47 234 303 -21 z m 615 201 b 269 547 425 201 269 357 b 615 894 269 738 425 894 b 962 547 806 894 962 738 b 615 201 962 357 806 201 z "},"Ö":{"ha":1232,"x_min":0,"x_max":0,"o":"m 464 1206 b 545 1287 508 1206 545 1242 b 464 1369 545 1331 508 1369 b 382 1287 419 1369 382 1331 b 464 1206 382 1242 419 1206 z m 768 1206 b 850 1287 812 1206 850 1242 b 768 1369 850 1331 812 1369 b 686 1287 724 1369 686 1331 b 768 1206 686 1242 723 1206 z m 615 -21 b 1185 545 928 -21 1185 234 b 616 1116 1185 859 928 1116 b 47 545 303 1116 47 859 b 615 -21 47 234 303 -21 z m 615 201 b 269 547 425 201 269 357 b 615 894 269 738 425 894 b 962 547 806 894 962 738 b 615 201 962 357 806 201 z "},"ö":{"ha":1232,"x_min":0,"x_max":0,"o":"m 464 1206 b 545 1287 508 1206 545 1242 b 464 1369 545 1331 508 1369 b 382 1287 419 1369 382 1331 b 464 1206 382 1242 419 1206 z m 768 1206 b 850 1287 812 1206 850 1242 b 768 1369 850 1331 812 1369 b 686 1287 724 1369 686 1331 b 768 1206 686 1242 723 1206 z m 615 -21 b 1185 545 928 -21 1185 234 b 616 1116 1185 859 928 1116 b 47 545 303 1116 47 859 b 615 -21 47 234 303 -21 z m 615 201 b 269 547 425 201 269 357 b 615 894 269 738 425 894 b 962 547 806 894 962 738 b 615 201 962 357 806 201 z "},"Ò":{"ha":1232,"x_min":0,"x_max":0,"o":"m 619 1183 l 774 1183 l 648 1405 l 458 1405 z m 615 -21 b 1185 545 928 -21 1185 234 b 616 1116 1185 859 928 1116 b 47 545 303 1116 47 859 b 615 -21 47 234 303 -21 z m 615 201 b 269 547 425 201 269 357 b 615 894 269 738 425 894 b 962 547 806 894 962 738 b 615 201 962 357 806 201 z "},"ò":{"ha":1232,"x_min":0,"x_max":0,"o":"m 619 1183 l 774 1183 l 648 1405 l 458 1405 z m 615 -21 b 1185 545 928 -21 1185 234 b 616 1116 1185 859 928 1116 b 47 545 303 1116 47 859 b 615 -21 47 234 303 -21 z m 615 201 b 269 547 425 201 269 357 b 615 894 269 738 425 894 b 962 547 806 894 962 738 b 615 201 962 357 806 201 z "},"Ő":{"ha":1232,"x_min":0,"x_max":0,"o":"m 387 1183 l 521 1183 l 655 1405 l 486 1405 z m 616 1183 l 758 1183 l 940 1405 l 757 1405 z m 615 -21 b 1185 545 928 -21 1185 234 b 616 1116 1185 859 928 1116 b 47 545 303 1116 47 859 b 615 -21 47 234 303 -21 z m 615 201 b 269 547 425 201 269 357 b 615 894 269 738 425 894 b 962 547 806 894 962 738 b 615 201 962 357 806 201 z "},"ő":{"ha":1232,"x_min":0,"x_max":0,"o":"m 387 1183 l 521 1183 l 655 1405 l 486 1405 z m 616 1183 l 758 1183 l 940 1405 l 757 1405 z m 615 -21 b 1185 545 928 -21 1185 234 b 616 1116 1185 859 928 1116 b 47 545 303 1116 47 859 b 615 -21 47 234 303 -21 z m 615 201 b 269 547 425 201 269 357 b 615 894 269 738 425 894 b 962 547 806 894 962 738 b 615 201 962 357 806 201 z "},"Ō":{"ha":1232,"x_min":0,"x_max":0,"o":"m 418 1226 l 813 1226 l 813 1336 l 418 1336 z m 615 -21 b 1185 545 928 -21 1185 234 b 616 1116 1185 859 928 1116 b 47 545 303 1116 47 859 b 615 -21 47 234 303 -21 z m 615 201 b 269 547 425 201 269 357 b 615 894 269 738 425 894 b 962 547 806 894 962 738 b 615 201 962 357 806 201 z "},"ō":{"ha":1232,"x_min":0,"x_max":0,"o":"m 418 1226 l 813 1226 l 813 1336 l 418 1336 z m 615 -21 b 1185 545 928 -21 1185 234 b 616 1116 1185 859 928 1116 b 47 545 303 1116 47 859 b 615 -21 47 234 303 -21 z m 615 201 b 269 547 425 201 269 357 b 615 894 269 738 425 894 b 962 547 806 894 962 738 b 615 201 962 357 806 201 z "},"Ø":{"ha":1232,"x_min":0,"x_max":0,"o":"m 1006 959 l 1116 1118 l 931 1118 l 883 1048 b 616 1116 803 1091 712 1116 b 47 545 303 1116 47 859 b 241 120 47 376 123 224 l 119 -56 l 305 -56 l 369 35 b 615 -21 444 -1 527 -21 b 1185 545 928 -21 1185 234 b 1006 959 1185 708 1116 855 z m 269 547 b 615 894 269 738 425 894 b 755 864 665 894 713 883 l 369 304 b 269 547 307 367 269 452 z m 615 201 b 497 222 574 201 534 209 l 878 773 b 962 547 930 712 962 633 b 615 201 962 357 806 201 z "},"ø":{"ha":1232,"x_min":0,"x_max":0,"o":"m 1006 959 l 1116 1118 l 931 1118 l 883 1048 b 616 1116 803 1091 712 1116 b 47 545 303 1116 47 859 b 241 120 47 376 123 224 l 119 -56 l 305 -56 l 369 35 b 615 -21 444 -1 527 -21 b 1185 545 928 -21 1185 234 b 1006 959 1185 708 1116 855 z m 269 547 b 615 894 269 738 425 894 b 755 864 665 894 713 883 l 369 304 b 269 547 307 367 269 452 z m 615 201 b 497 222 574 201 534 209 l 878 773 b 962 547 930 712 962 633 b 615 201 962 357 806 201 z "},"Õ":{"ha":1232,"x_min":0,"x_max":0,"o":"m 442 1200 b 513 1286 453 1249 471 1286 b 719 1200 581 1286 616 1200 b 895 1358 767 1200 865 1215 l 789 1398 b 719 1312 779 1349 760 1312 b 513 1398 651 1312 616 1398 b 337 1240 465 1398 366 1383 z m 615 -21 b 1185 545 928 -21 1185 234 b 616 1116 1185 859 928 1116 b 47 545 303 1116 47 859 b 615 -21 47 234 303 -21 z m 615 201 b 269 547 425 201 269 357 b 615 894 269 738 425 894 b 962 547 806 894 962 738 b 615 201 962 357 806 201 z "},"õ":{"ha":1232,"x_min":0,"x_max":0,"o":"m 442 1200 b 513 1286 453 1249 471 1286 b 719 1200 581 1286 616 1200 b 895 1358 767 1200 865 1215 l 789 1398 b 719 1312 779 1349 760 1312 b 513 1398 651 1312 616 1398 b 337 1240 465 1398 366 1383 z m 615 -21 b 1185 545 928 -21 1185 234 b 616 1116 1185 859 928 1116 b 47 545 303 1116 47 859 b 615 -21 47 234 303 -21 z m 615 201 b 269 547 425 201 269 357 b 615 894 269 738 425 894 b 962 547 806 894 962 738 b 615 201 962 357 806 201 z "},"Œ":{"ha":1688,"x_min":0,"x_max":0,"o":"m 1622 877 l 1622 1093 l 962 1093 l 962 979 b 602 1116 871 1064 749 1116 b 47 545 303 1116 47 859 b 602 -21 47 234 303 -21 b 962 115 748 -21 871 31 l 962 0 l 1622 0 l 1622 218 l 1182 218 l 1182 444 l 1559 444 l 1559 663 l 1182 663 l 1182 877 z m 615 201 b 269 547 425 201 269 357 b 615 894 269 738 425 894 b 962 547 806 894 962 738 b 615 201 962 357 806 201 z "},"œ":{"ha":1688,"x_min":0,"x_max":0,"o":"m 1622 877 l 1622 1093 l 962 1093 l 962 979 b 602 1116 871 1064 749 1116 b 47 545 303 1116 47 859 b 602 -21 47 234 303 -21 b 962 115 748 -21 871 31 l 962 0 l 1622 0 l 1622 218 l 1182 218 l 1182 444 l 1559 444 l 1559 663 l 1182 663 l 1182 877 z m 615 201 b 269 547 425 201 269 357 b 615 894 269 738 425 894 b 962 547 806 894 962 738 b 615 201 962 357 806 201 z "},"P":{"ha":892,"x_min":0,"x_max":0,"o":"m 95 0 l 315 0 l 315 355 l 479 355 b 863 724 690 355 863 521 b 479 1093 863 927 690 1093 l 95 1093 z m 479 572 l 315 573 l 315 876 l 479 876 b 644 726 570 876 644 808 b 479 572 644 641 570 572 z "},"p":{"ha":892,"x_min":0,"x_max":0,"o":"m 95 0 l 315 0 l 315 355 l 479 355 b 863 724 690 355 863 521 b 479 1093 863 927 690 1093 l 95 1093 z m 479 572 l 315 573 l 315 876 l 479 876 b 644 726 570 876 644 808 b 479 572 644 641 570 572 z "},"Þ":{"ha":888,"x_min":0,"x_max":0,"o":"m 95 0 l 314 0 l 314 195 l 481 195 b 841 553 682 195 841 353 b 481 912 841 753 682 912 l 314 912 l 314 1093 l 95 1093 z m 314 397 l 314 711 l 481 711 b 639 553 568 711 639 640 b 481 397 639 467 567 397 z "},"þ":{"ha":888,"x_min":0,"x_max":0,"o":"m 95 0 l 314 0 l 314 195 l 481 195 b 841 553 682 195 841 353 b 481 912 841 753 682 912 l 314 912 l 314 1093 l 95 1093 z m 314 397 l 314 711 l 481 711 b 639 553 568 711 639 640 b 481 397 639 467 567 397 z "},"Q":{"ha":1232,"x_min":0,"x_max":0,"o":"m 1185 545 b 616 1116 1185 859 928 1116 b 47 545 303 1116 47 859 b 615 -21 47 234 303 -21 b 875 42 709 -21 797 1 b 1155 -52 947 -7 1036 -44 l 1173 163 b 1053 183 1127 165 1088 173 b 1185 545 1135 281 1185 408 z m 269 547 b 615 894 269 738 425 894 b 962 547 806 894 962 738 b 860 302 962 452 923 365 b 467 545 753 406 677 529 l 456 356 b 692 210 554 349 621 286 b 615 201 668 204 642 201 b 269 547 425 201 269 357 z "},"q":{"ha":1232,"x_min":0,"x_max":0,"o":"m 1185 545 b 616 1116 1185 859 928 1116 b 47 545 303 1116 47 859 b 615 -21 47 234 303 -21 b 875 42 709 -21 797 1 b 1155 -52 947 -7 1036 -44 l 1173 163 b 1053 183 1127 165 1088 173 b 1185 545 1135 281 1185 408 z m 269 547 b 615 894 269 738 425 894 b 962 547 806 894 962 738 b 860 302 962 452 923 365 b 467 545 753 406 677 529 l 456 356 b 692 210 554 349 621 286 b 615 201 668 204 642 201 b 269 547 425 201 269 357 z "},"R":{"ha":941,"x_min":0,"x_max":0,"o":"m 932 0 l 621 435 b 823 739 739 476 823 599 b 452 1093 823 936 656 1093 l 95 1093 l 96 0 l 315 0 l 315 517 l 663 0 z m 315 876 l 456 876 b 597 738 530 876 597 816 b 456 600 597 660 530 600 l 315 601 z "},"r":{"ha":941,"x_min":0,"x_max":0,"o":"m 932 0 l 621 435 b 823 739 739 476 823 599 b 452 1093 823 936 656 1093 l 95 1093 l 96 0 l 315 0 l 315 517 l 663 0 z m 315 876 l 456 876 b 597 738 530 876 597 816 b 456 600 597 660 530 600 l 315 601 z "},"Ŕ":{"ha":941,"x_min":0,"x_max":0,"o":"m 685 1405 l 495 1405 l 368 1183 l 524 1183 z m 932 0 l 621 435 b 823 739 739 476 823 599 b 452 1093 823 936 656 1093 l 95 1093 l 96 0 l 315 0 l 315 517 l 663 0 z m 315 876 l 456 876 b 597 738 530 876 597 816 b 456 600 597 660 530 600 l 315 601 z "},"ŕ":{"ha":941,"x_min":0,"x_max":0,"o":"m 685 1405 l 495 1405 l 368 1183 l 524 1183 z m 932 0 l 621 435 b 823 739 739 476 823 599 b 452 1093 823 936 656 1093 l 95 1093 l 96 0 l 315 0 l 315 517 l 663 0 z m 315 876 l 456 876 b 597 738 530 876 597 816 b 456 600 597 660 530 600 l 315 601 z "},"Ř":{"ha":941,"x_min":0,"x_max":0,"o":"m 536 1193 l 752 1392 l 576 1392 l 475 1292 l 375 1392 l 201 1392 l 414 1193 z m 932 0 l 621 435 b 823 739 739 476 823 599 b 452 1093 823 936 656 1093 l 95 1093 l 96 0 l 315 0 l 315 517 l 663 0 z m 315 876 l 456 876 b 597 738 530 876 597 816 b 456 600 597 660 530 600 l 315 601 z "},"ř":{"ha":941,"x_min":0,"x_max":0,"o":"m 536 1193 l 752 1392 l 576 1392 l 475 1292 l 375 1392 l 201 1392 l 414 1193 z m 932 0 l 621 435 b 823 739 739 476 823 599 b 452 1093 823 936 656 1093 l 95 1093 l 96 0 l 315 0 l 315 517 l 663 0 z m 315 876 l 456 876 b 597 738 530 876 597 816 b 456 600 597 660 530 600 l 315 601 z "},"Ŗ":{"ha":941,"x_min":0,"x_max":0,"o":"m 621 435 b 823 739 739 476 823 599 b 452 1093 823 936 656 1093 l 95 1093 l 96 0 l 315 0 l 315 517 l 663 0 l 932 0 z m 315 876 l 456 876 b 597 738 530 876 597 816 b 456 600 597 660 530 600 l 315 601 z m 478 -78 b 378 -166 420 -78 378 -119 b 461 -242 378 -216 427 -242 b 469 -273 467 -250 469 -256 b 374 -355 469 -330 410 -355 b 427 -378 374 -361 393 -378 b 581 -199 519 -378 581 -290 b 478 -78 581 -120 534 -78 z "},"ŗ":{"ha":941,"x_min":0,"x_max":0,"o":"m 621 435 b 823 739 739 476 823 599 b 452 1093 823 936 656 1093 l 95 1093 l 96 0 l 315 0 l 315 517 l 663 0 l 932 0 z m 315 876 l 456 876 b 597 738 530 876 597 816 b 456 600 597 660 530 600 l 315 601 z m 478 -78 b 378 -166 420 -78 378 -119 b 461 -242 378 -216 427 -242 b 469 -273 467 -250 469 -256 b 374 -355 469 -330 410 -355 b 427 -378 374 -361 393 -378 b 581 -199 519 -378 581 -290 b 478 -78 581 -120 534 -78 z "},"S":{"ha":857,"x_min":0,"x_max":0,"o":"m 422 -22 b 819 304 656 -22 819 105 b 524 650 819 473 705 565 b 316 797 399 709 316 732 b 459 901 316 853 377 901 b 616 809 520 901 583 874 l 778 922 b 456 1116 728 1055 605 1116 b 95 802 255 1116 95 991 b 353 500 95 628 230 561 b 598 300 467 443 598 380 b 426 199 598 241 529 199 b 214 312 332 199 262 235 l 38 189 b 422 -22 111 53 243 -22 z "},"s":{"ha":857,"x_min":0,"x_max":0,"o":"m 422 -22 b 819 304 656 -22 819 105 b 524 650 819 473 705 565 b 316 797 399 709 316 732 b 459 901 316 853 377 901 b 616 809 520 901 583 874 l 778 922 b 456 1116 728 1055 605 1116 b 95 802 255 1116 95 991 b 353 500 95 628 230 561 b 598 300 467 443 598 380 b 426 199 598 241 529 199 b 214 312 332 199 262 235 l 38 189 b 422 -22 111 53 243 -22 z "},"Ś":{"ha":857,"x_min":0,"x_max":0,"o":"m 485 1183 l 646 1405 l 456 1405 l 330 1183 z m 422 -22 b 819 304 656 -22 819 105 b 524 650 819 473 705 565 b 316 797 399 709 316 732 b 459 901 316 853 377 901 b 616 809 520 901 583 874 l 778 922 b 456 1116 728 1055 605 1116 b 95 802 255 1116 95 991 b 353 500 95 628 230 561 b 598 300 467 443 598 380 b 426 199 598 241 529 199 b 214 312 332 199 262 235 l 38 189 b 422 -22 111 53 243 -22 z "},"ś":{"ha":857,"x_min":0,"x_max":0,"o":"m 485 1183 l 646 1405 l 456 1405 l 330 1183 z m 422 -22 b 819 304 656 -22 819 105 b 524 650 819 473 705 565 b 316 797 399 709 316 732 b 459 901 316 853 377 901 b 616 809 520 901 583 874 l 778 922 b 456 1116 728 1055 605 1116 b 95 802 255 1116 95 991 b 353 500 95 628 230 561 b 598 300 467 443 598 380 b 426 199 598 241 529 199 b 214 312 332 199 262 235 l 38 189 b 422 -22 111 53 243 -22 z "},"Š":{"ha":857,"x_min":0,"x_max":0,"o":"m 162 1392 l 376 1193 l 497 1193 l 713 1392 l 538 1392 l 437 1292 l 336 1392 z m 422 -22 b 819 304 656 -22 819 105 b 524 650 819 473 705 565 b 316 797 399 709 316 732 b 459 901 316 853 377 901 b 616 809 520 901 583 874 l 778 922 b 456 1116 728 1055 605 1116 b 95 802 255 1116 95 991 b 353 500 95 628 230 561 b 598 300 467 443 598 380 b 426 199 598 241 529 199 b 214 312 332 199 262 235 l 38 189 b 422 -22 111 53 243 -22 z "},"š":{"ha":857,"x_min":0,"x_max":0,"o":"m 162 1392 l 376 1193 l 497 1193 l 713 1392 l 538 1392 l 437 1292 l 336 1392 z m 422 -22 b 819 304 656 -22 819 105 b 524 650 819 473 705 565 b 316 797 399 709 316 732 b 459 901 316 853 377 901 b 616 809 520 901 583 874 l 778 922 b 456 1116 728 1055 605 1116 b 95 802 255 1116 95 991 b 353 500 95 628 230 561 b 598 300 467 443 598 380 b 426 199 598 241 529 199 b 214 312 332 199 262 235 l 38 189 b 422 -22 111 53 243 -22 z "},"Ş":{"ha":857,"x_min":0,"x_max":0,"o":"m 819 304 b 524 650 819 473 705 565 b 316 797 399 709 316 732 b 459 901 316 853 377 901 b 616 809 520 901 583 874 l 778 922 b 456 1116 728 1055 605 1116 b 95 802 255 1116 95 991 b 353 500 95 628 230 561 b 598 300 467 443 598 380 b 426 199 598 241 529 199 b 214 312 332 199 262 235 l 38 189 b 382 -20 106 63 223 -9 l 313 -111 l 340 -146 b 374 -142 353 -144 364 -142 b 423 -178 410 -142 423 -160 b 245 -240 423 -215 372 -240 l 300 -373 b 572 -172 455 -373 572 -278 b 481 -64 572 -109 530 -64 b 452 -66 470 -64 463 -64 l 490 -18 b 819 304 687 4 819 125 z "},"ş":{"ha":857,"x_min":0,"x_max":0,"o":"m 819 304 b 524 650 819 473 705 565 b 316 797 399 709 316 732 b 459 901 316 853 377 901 b 616 809 520 901 583 874 l 778 922 b 456 1116 728 1055 605 1116 b 95 802 255 1116 95 991 b 353 500 95 628 230 561 b 598 300 467 443 598 380 b 426 199 598 241 529 199 b 214 312 332 199 262 235 l 38 189 b 382 -20 106 63 223 -9 l 313 -111 l 340 -146 b 374 -142 353 -144 364 -142 b 423 -178 410 -142 423 -160 b 245 -240 423 -215 372 -240 l 300 -373 b 572 -172 455 -373 572 -278 b 481 -64 572 -109 530 -64 b 452 -66 470 -64 463 -64 l 490 -18 b 819 304 687 4 819 125 z "},"Ș":{"ha":857,"x_min":0,"x_max":0,"o":"m 422 -22 b 819 304 656 -22 819 105 b 524 650 819 473 705 565 b 316 797 399 709 316 732 b 459 901 316 853 377 901 b 616 809 520 901 583 874 l 778 922 b 456 1116 728 1055 605 1116 b 95 802 255 1116 95 991 b 353 500 95 628 230 561 b 598 300 467 443 598 380 b 426 199 598 241 529 199 b 214 312 332 199 262 235 l 38 189 b 422 -22 111 53 243 -22 z m 388 -378 b 542 -199 480 -378 542 -290 b 439 -78 542 -120 495 -78 b 339 -166 381 -78 339 -119 b 422 -242 339 -216 389 -242 b 431 -273 429 -250 431 -256 b 336 -355 431 -330 372 -355 b 388 -378 336 -361 355 -378 z "},"ș":{"ha":857,"x_min":0,"x_max":0,"o":"m 422 -22 b 819 304 656 -22 819 105 b 524 650 819 473 705 565 b 316 797 399 709 316 732 b 459 901 316 853 377 901 b 616 809 520 901 583 874 l 778 922 b 456 1116 728 1055 605 1116 b 95 802 255 1116 95 991 b 353 500 95 628 230 561 b 598 300 467 443 598 380 b 426 199 598 241 529 199 b 214 312 332 199 262 235 l 38 189 b 422 -22 111 53 243 -22 z m 388 -378 b 542 -199 480 -378 542 -290 b 439 -78 542 -120 495 -78 b 339 -166 381 -78 339 -119 b 422 -242 339 -216 389 -242 b 431 -273 429 -250 431 -256 b 336 -355 431 -330 372 -355 b 388 -378 336 -361 355 -378 z "},"ß":{"ha":1230,"x_min":0,"x_max":0,"o":"m 927 671 b 814 714 882 693 846 707 l 1043 991 b 600 1114 913 1076 747 1114 b 95 720 320 1114 95 972 l 95 0 l 316 0 l 316 720 b 555 911 316 836 429 911 b 698 882 604 911 655 902 l 524 630 b 773 518 595 609 728 542 b 980 307 871 466 980 387 b 825 199 980 245 913 199 b 601 348 724 199 660 260 l 448 195 b 820 -22 528 50 652 -22 b 1202 317 1062 -22 1202 128 b 927 671 1202 465 1117 579 z "},"ẞ":{"ha":1230,"x_min":0,"x_max":0,"o":"m 927 671 b 814 714 882 693 846 707 l 1043 991 b 600 1114 913 1076 747 1114 b 95 720 320 1114 95 972 l 95 0 l 316 0 l 316 720 b 555 911 316 836 429 911 b 698 882 604 911 655 902 l 524 630 b 773 518 595 609 728 542 b 980 307 871 466 980 387 b 825 199 980 245 913 199 b 601 348 724 199 660 260 l 448 195 b 820 -22 528 50 652 -22 b 1202 317 1062 -22 1202 128 b 927 671 1202 465 1117 579 z "},"Ə":{"ha":1204,"x_min":0,"x_max":0,"o":"m 603 -8 b 1156 545 912 -8 1156 237 b 603 1101 1156 848 918 1103 b 297 1008 490 1101 381 1063 l 416 823 b 600 880 471 861 531 880 b 915 656 744 880 866 789 l 58 656 b 47 547 51 623 47 583 b 603 -8 47 237 294 -8 z m 603 213 b 288 435 445 213 330 316 l 915 435 b 603 213 869 306 745 213 z "},"ə":{"ha":1204,"x_min":0,"x_max":0,"o":"m 603 -8 b 1156 545 912 -8 1156 237 b 603 1101 1156 848 918 1103 b 297 1008 490 1101 381 1063 l 416 823 b 600 880 471 861 531 880 b 915 656 744 880 866 789 l 58 656 b 47 547 51 623 47 583 b 603 -8 47 237 294 -8 z m 603 213 b 288 435 445 213 330 316 l 915 435 b 603 213 869 306 745 213 z "},"T":{"ha":815,"x_min":0,"x_max":0,"o":"m 787 1093 l 28 1093 l 28 876 l 298 876 l 298 0 l 518 0 l 518 876 l 787 876 z "},"t":{"ha":815,"x_min":0,"x_max":0,"o":"m 787 1093 l 28 1093 l 28 876 l 298 876 l 298 0 l 518 0 l 518 876 l 787 876 z "},"Ŧ":{"ha":815,"x_min":0,"x_max":0,"o":"m 787 876 l 787 1093 l 28 1093 l 28 876 l 298 876 l 298 625 l 140 625 l 140 469 l 298 469 l 298 0 l 518 0 l 518 469 l 675 469 l 675 625 l 518 625 l 518 876 z "},"ŧ":{"ha":815,"x_min":0,"x_max":0,"o":"m 787 876 l 787 1093 l 28 1093 l 28 876 l 298 876 l 298 625 l 140 625 l 140 469 l 298 469 l 298 0 l 518 0 l 518 469 l 675 469 l 675 625 l 518 625 l 518 876 z "},"Ť":{"ha":815,"x_min":0,"x_max":0,"o":"m 467 1193 l 684 1392 l 508 1392 l 407 1292 l 307 1392 l 132 1392 l 346 1193 z m 787 1093 l 28 1093 l 28 876 l 298 876 l 298 0 l 518 0 l 518 876 l 787 876 z "},"ť":{"ha":815,"x_min":0,"x_max":0,"o":"m 467 1193 l 684 1392 l 508 1392 l 407 1292 l 307 1392 l 132 1392 l 346 1193 z m 787 1093 l 28 1093 l 28 876 l 298 876 l 298 0 l 518 0 l 518 876 l 787 876 z "},"Ţ":{"ha":815,"x_min":0,"x_max":0,"o":"m 518 0 l 518 876 l 787 876 l 787 1093 l 28 1093 l 28 876 l 298 876 l 298 0 l 368 0 l 283 -111 l 310 -146 b 344 -142 323 -144 334 -142 b 393 -178 380 -142 393 -160 b 216 -240 393 -215 342 -240 l 271 -373 b 543 -172 425 -373 543 -278 b 451 -64 543 -109 500 -64 b 422 -66 440 -64 433 -64 l 475 0 z "},"ţ":{"ha":815,"x_min":0,"x_max":0,"o":"m 518 0 l 518 876 l 787 876 l 787 1093 l 28 1093 l 28 876 l 298 876 l 298 0 l 368 0 l 283 -111 l 310 -146 b 344 -142 323 -144 334 -142 b 393 -178 380 -142 393 -160 b 216 -240 393 -215 342 -240 l 271 -373 b 543 -172 425 -373 543 -278 b 451 -64 543 -109 500 -64 b 422 -66 440 -64 433 -64 l 475 0 z "},"Ț":{"ha":815,"x_min":0,"x_max":0,"o":"m 787 1093 l 28 1093 l 28 876 l 298 876 l 298 0 l 518 0 l 518 876 l 787 876 z m 410 -78 b 309 -166 351 -78 309 -119 b 393 -242 309 -216 359 -242 b 401 -273 399 -250 401 -256 b 306 -355 401 -330 342 -355 b 358 -378 306 -361 325 -378 b 512 -199 450 -378 512 -290 b 410 -78 512 -120 465 -78 z "},"ț":{"ha":815,"x_min":0,"x_max":0,"o":"m 787 1093 l 28 1093 l 28 876 l 298 876 l 298 0 l 518 0 l 518 876 l 787 876 z m 410 -78 b 309 -166 351 -78 309 -119 b 393 -242 309 -216 359 -242 b 401 -273 399 -250 401 -256 b 306 -355 401 -330 342 -355 b 358 -378 306 -361 325 -378 b 512 -199 450 -378 512 -290 b 410 -78 512 -120 465 -78 z "},"U":{"ha":1015,"x_min":0,"x_max":0,"o":"m 507 -24 b 929 404 740 -24 929 157 l 929 1093 l 708 1093 l 708 405 b 507 199 708 286 612 199 b 307 405 401 199 307 286 l 307 1093 l 85 1093 l 85 404 b 507 -24 85 157 275 -24 z "},"u":{"ha":1015,"x_min":0,"x_max":0,"o":"m 507 -24 b 929 404 740 -24 929 157 l 929 1093 l 708 1093 l 708 405 b 507 199 708 286 612 199 b 307 405 401 199 307 286 l 307 1093 l 85 1093 l 85 404 b 507 -24 85 157 275 -24 z "},"Ú":{"ha":1015,"x_min":0,"x_max":0,"o":"m 555 1183 l 716 1405 l 526 1405 l 399 1183 z m 507 -24 b 929 404 740 -24 929 157 l 929 1093 l 708 1093 l 708 405 b 507 199 708 286 612 199 b 307 405 401 199 307 286 l 307 1093 l 85 1093 l 85 404 b 507 -24 85 157 275 -24 z "},"ú":{"ha":1015,"x_min":0,"x_max":0,"o":"m 555 1183 l 716 1405 l 526 1405 l 399 1183 z m 507 -24 b 929 404 740 -24 929 157 l 929 1093 l 708 1093 l 708 405 b 507 199 708 286 612 199 b 307 405 401 199 307 286 l 307 1093 l 85 1093 l 85 404 b 507 -24 85 157 275 -24 z "},"Û":{"ha":1015,"x_min":0,"x_max":0,"o":"m 232 1193 l 406 1193 l 507 1293 l 608 1193 l 783 1193 l 567 1392 l 446 1392 z m 507 -24 b 929 404 740 -24 929 157 l 929 1093 l 708 1093 l 708 405 b 507 199 708 286 612 199 b 307 405 401 199 307 286 l 307 1093 l 85 1093 l 85 404 b 507 -24 85 157 275 -24 z "},"û":{"ha":1015,"x_min":0,"x_max":0,"o":"m 232 1193 l 406 1193 l 507 1293 l 608 1193 l 783 1193 l 567 1392 l 446 1392 z m 507 -24 b 929 404 740 -24 929 157 l 929 1093 l 708 1093 l 708 405 b 507 199 708 286 612 199 b 307 405 401 199 307 286 l 307 1093 l 85 1093 l 85 404 b 507 -24 85 157 275 -24 z "},"Ü":{"ha":1015,"x_min":0,"x_max":0,"o":"m 355 1206 b 437 1287 399 1206 437 1242 b 355 1369 437 1331 399 1369 b 273 1287 311 1369 273 1331 b 355 1206 273 1242 311 1206 z m 659 1206 b 741 1287 704 1206 741 1242 b 659 1369 741 1331 704 1369 b 578 1287 615 1369 578 1331 b 659 1206 578 1242 614 1206 z m 507 -24 b 929 404 740 -24 929 157 l 929 1093 l 708 1093 l 708 405 b 507 199 708 286 612 199 b 307 405 401 199 307 286 l 307 1093 l 85 1093 l 85 404 b 507 -24 85 157 275 -24 z "},"ü":{"ha":1015,"x_min":0,"x_max":0,"o":"m 355 1206 b 437 1287 399 1206 437 1242 b 355 1369 437 1331 399 1369 b 273 1287 311 1369 273 1331 b 355 1206 273 1242 311 1206 z m 659 1206 b 741 1287 704 1206 741 1242 b 659 1369 741 1331 704 1369 b 578 1287 615 1369 578 1331 b 659 1206 578 1242 614 1206 z m 507 -24 b 929 404 740 -24 929 157 l 929 1093 l 708 1093 l 708 405 b 507 199 708 286 612 199 b 307 405 401 199 307 286 l 307 1093 l 85 1093 l 85 404 b 507 -24 85 157 275 -24 z "},"Ù":{"ha":1015,"x_min":0,"x_max":0,"o":"m 511 1183 l 666 1183 l 539 1405 l 349 1405 z m 507 -24 b 929 404 740 -24 929 157 l 929 1093 l 708 1093 l 708 405 b 507 199 708 286 612 199 b 307 405 401 199 307 286 l 307 1093 l 85 1093 l 85 404 b 507 -24 85 157 275 -24 z "},"ù":{"ha":1015,"x_min":0,"x_max":0,"o":"m 511 1183 l 666 1183 l 539 1405 l 349 1405 z m 507 -24 b 929 404 740 -24 929 157 l 929 1093 l 708 1093 l 708 405 b 507 199 708 286 612 199 b 307 405 401 199 307 286 l 307 1093 l 85 1093 l 85 404 b 507 -24 85 157 275 -24 z "},"Ű":{"ha":1015,"x_min":0,"x_max":0,"o":"m 278 1183 l 412 1183 l 547 1405 l 377 1405 z m 508 1183 l 650 1183 l 831 1405 l 648 1405 z m 507 -24 b 929 404 740 -24 929 157 l 929 1093 l 708 1093 l 708 405 b 507 199 708 286 612 199 b 307 405 401 199 307 286 l 307 1093 l 85 1093 l 85 404 b 507 -24 85 157 275 -24 z "},"ű":{"ha":1015,"x_min":0,"x_max":0,"o":"m 278 1183 l 412 1183 l 547 1405 l 377 1405 z m 508 1183 l 650 1183 l 831 1405 l 648 1405 z m 507 -24 b 929 404 740 -24 929 157 l 929 1093 l 708 1093 l 708 405 b 507 199 708 286 612 199 b 307 405 401 199 307 286 l 307 1093 l 85 1093 l 85 404 b 507 -24 85 157 275 -24 z "},"Ū":{"ha":1015,"x_min":0,"x_max":0,"o":"m 310 1226 l 705 1226 l 705 1336 l 310 1336 z m 507 -24 b 929 404 740 -24 929 157 l 929 1093 l 708 1093 l 708 405 b 507 199 708 286 612 199 b 307 405 401 199 307 286 l 307 1093 l 85 1093 l 85 404 b 507 -24 85 157 275 -24 z "},"ū":{"ha":1015,"x_min":0,"x_max":0,"o":"m 310 1226 l 705 1226 l 705 1336 l 310 1336 z m 507 -24 b 929 404 740 -24 929 157 l 929 1093 l 708 1093 l 708 405 b 507 199 708 286 612 199 b 307 405 401 199 307 286 l 307 1093 l 85 1093 l 85 404 b 507 -24 85 157 275 -24 z "},"Ų":{"ha":1015,"x_min":0,"x_max":0,"o":"m 708 1093 l 708 405 b 507 199 708 286 612 199 b 307 405 401 199 307 286 l 307 1093 l 85 1093 l 85 404 b 437 -18 85 182 238 14 b 332 -210 376 -62 332 -131 b 524 -369 332 -309 401 -369 b 637 -355 557 -369 595 -365 l 613 -203 b 536 -214 580 -211 549 -214 b 488 -159 491 -214 488 -173 b 600 -14 488 -113 523 -73 b 929 404 788 26 929 191 l 929 1093 z "},"ų":{"ha":1015,"x_min":0,"x_max":0,"o":"m 708 1093 l 708 405 b 507 199 708 286 612 199 b 307 405 401 199 307 286 l 307 1093 l 85 1093 l 85 404 b 437 -18 85 182 238 14 b 332 -210 376 -62 332 -131 b 524 -369 332 -309 401 -369 b 637 -355 557 -369 595 -365 l 613 -203 b 536 -214 580 -211 549 -214 b 488 -159 491 -214 488 -173 b 600 -14 488 -113 523 -73 b 929 404 788 26 929 191 l 929 1093 z "},"Ů":{"ha":1015,"x_min":0,"x_max":0,"o":"m 508 1158 b 658 1309 589 1158 658 1227 b 508 1459 658 1391 589 1459 b 357 1309 425 1459 357 1392 b 508 1158 357 1226 425 1158 z m 508 1247 b 446 1308 474 1247 446 1274 b 508 1370 446 1342 474 1370 b 569 1308 542 1370 569 1342 b 508 1247 569 1274 542 1247 z m 507 -24 b 929 404 740 -24 929 157 l 929 1093 l 708 1093 l 708 405 b 507 199 708 286 612 199 b 307 405 401 199 307 286 l 307 1093 l 85 1093 l 85 404 b 507 -24 85 157 275 -24 z "},"ů":{"ha":1015,"x_min":0,"x_max":0,"o":"m 508 1158 b 658 1309 589 1158 658 1227 b 508 1459 658 1391 589 1459 b 357 1309 425 1459 357 1392 b 508 1158 357 1226 425 1158 z m 508 1247 b 446 1308 474 1247 446 1274 b 508 1370 446 1342 474 1370 b 569 1308 542 1370 569 1342 b 508 1247 569 1274 542 1247 z m 507 -24 b 929 404 740 -24 929 157 l 929 1093 l 708 1093 l 708 405 b 507 199 708 286 612 199 b 307 405 401 199 307 286 l 307 1093 l 85 1093 l 85 404 b 507 -24 85 157 275 -24 z "},"V":{"ha":1057,"x_min":0,"x_max":0,"o":"m 808 1093 l 527 458 l 247 1093 l 14 1093 l 524 -27 l 532 -27 l 1043 1093 z "},"v":{"ha":1057,"x_min":0,"x_max":0,"o":"m 808 1093 l 527 458 l 247 1093 l 14 1093 l 524 -27 l 532 -27 l 1043 1093 z "},"W":{"ha":1311,"x_min":0,"x_max":0,"o":"m 370 -14 l 382 -14 l 653 581 l 928 -14 l 941 -14 l 1297 1093 l 1059 1093 l 892 543 l 658 1089 l 654 1089 l 419 542 l 251 1093 l 14 1093 z "},"w":{"ha":1311,"x_min":0,"x_max":0,"o":"m 370 -14 l 382 -14 l 653 581 l 928 -14 l 941 -14 l 1297 1093 l 1059 1093 l 892 543 l 658 1089 l 654 1089 l 419 542 l 251 1093 l 14 1093 z "},"Ẃ":{"ha":1311,"x_min":0,"x_max":0,"o":"m 703 1183 l 865 1405 l 675 1405 l 548 1183 z m 370 -14 l 382 -14 l 653 581 l 928 -14 l 941 -14 l 1297 1093 l 1059 1093 l 892 543 l 658 1089 l 654 1089 l 419 542 l 251 1093 l 14 1093 z "},"ẃ":{"ha":1311,"x_min":0,"x_max":0,"o":"m 703 1183 l 865 1405 l 675 1405 l 548 1183 z m 370 -14 l 382 -14 l 653 581 l 928 -14 l 941 -14 l 1297 1093 l 1059 1093 l 892 543 l 658 1089 l 654 1089 l 419 542 l 251 1093 l 14 1093 z "},"Ŵ":{"ha":1311,"x_min":0,"x_max":0,"o":"m 380 1193 l 555 1193 l 655 1293 l 756 1193 l 932 1193 l 715 1392 l 594 1392 z m 370 -14 l 382 -14 l 653 581 l 928 -14 l 941 -14 l 1297 1093 l 1059 1093 l 892 543 l 658 1089 l 654 1089 l 419 542 l 251 1093 l 14 1093 z "},"ŵ":{"ha":1311,"x_min":0,"x_max":0,"o":"m 380 1193 l 555 1193 l 655 1293 l 756 1193 l 932 1193 l 715 1392 l 594 1392 z m 370 -14 l 382 -14 l 653 581 l 928 -14 l 941 -14 l 1297 1093 l 1059 1093 l 892 543 l 658 1089 l 654 1089 l 419 542 l 251 1093 l 14 1093 z "},"Ẅ":{"ha":1311,"x_min":0,"x_max":0,"o":"m 504 1206 b 585 1287 548 1206 585 1242 b 504 1369 585 1331 548 1369 b 422 1287 459 1369 422 1331 b 504 1206 422 1242 459 1206 z m 808 1206 b 890 1287 852 1206 890 1242 b 808 1369 890 1331 852 1369 b 726 1287 764 1369 726 1331 b 808 1206 726 1242 763 1206 z m 370 -14 l 382 -14 l 653 581 l 928 -14 l 941 -14 l 1297 1093 l 1059 1093 l 892 543 l 658 1089 l 654 1089 l 419 542 l 251 1093 l 14 1093 z "},"ẅ":{"ha":1311,"x_min":0,"x_max":0,"o":"m 504 1206 b 585 1287 548 1206 585 1242 b 504 1369 585 1331 548 1369 b 422 1287 459 1369 422 1331 b 504 1206 422 1242 459 1206 z m 808 1206 b 890 1287 852 1206 890 1242 b 808 1369 890 1331 852 1369 b 726 1287 764 1369 726 1331 b 808 1206 726 1242 763 1206 z m 370 -14 l 382 -14 l 653 581 l 928 -14 l 941 -14 l 1297 1093 l 1059 1093 l 892 543 l 658 1089 l 654 1089 l 419 542 l 251 1093 l 14 1093 z "},"Ẁ":{"ha":1311,"x_min":0,"x_max":0,"o":"m 659 1183 l 814 1183 l 688 1405 l 498 1405 z m 370 -14 l 382 -14 l 653 581 l 928 -14 l 941 -14 l 1297 1093 l 1059 1093 l 892 543 l 658 1089 l 654 1089 l 419 542 l 251 1093 l 14 1093 z "},"ẁ":{"ha":1311,"x_min":0,"x_max":0,"o":"m 659 1183 l 814 1183 l 688 1405 l 498 1405 z m 370 -14 l 382 -14 l 653 581 l 928 -14 l 941 -14 l 1297 1093 l 1059 1093 l 892 543 l 658 1089 l 654 1089 l 419 542 l 251 1093 l 14 1093 z "},"X":{"ha":947,"x_min":0,"x_max":0,"o":"m 14 0 l 267 0 l 473 367 l 681 0 l 933 0 l 600 568 l 913 1093 l 661 1093 l 474 762 l 287 1093 l 35 1093 l 347 568 z "},"x":{"ha":947,"x_min":0,"x_max":0,"o":"m 14 0 l 267 0 l 473 367 l 681 0 l 933 0 l 600 568 l 913 1093 l 661 1093 l 474 762 l 287 1093 l 35 1093 l 347 568 z "},"Y":{"ha":924,"x_min":0,"x_max":0,"o":"m 353 0 l 571 0 l 571 469 l 910 1093 l 661 1093 l 462 713 l 262 1093 l 14 1093 l 353 469 z "},"y":{"ha":924,"x_min":0,"x_max":0,"o":"m 353 0 l 571 0 l 571 469 l 910 1093 l 661 1093 l 462 713 l 262 1093 l 14 1093 l 353 469 z "},"Ý":{"ha":924,"x_min":0,"x_max":0,"o":"m 510 1183 l 671 1405 l 481 1405 l 355 1183 z m 353 0 l 571 0 l 571 469 l 910 1093 l 661 1093 l 462 713 l 262 1093 l 14 1093 l 353 469 z "},"ý":{"ha":924,"x_min":0,"x_max":0,"o":"m 510 1183 l 671 1405 l 481 1405 l 355 1183 z m 353 0 l 571 0 l 571 469 l 910 1093 l 661 1093 l 462 713 l 262 1093 l 14 1093 l 353 469 z "},"Ŷ":{"ha":924,"x_min":0,"x_max":0,"o":"m 187 1193 l 361 1193 l 462 1293 l 563 1193 l 739 1193 l 522 1392 l 401 1392 z m 353 0 l 571 0 l 571 469 l 910 1093 l 661 1093 l 462 713 l 262 1093 l 14 1093 l 353 469 z "},"ŷ":{"ha":924,"x_min":0,"x_max":0,"o":"m 187 1193 l 361 1193 l 462 1293 l 563 1193 l 739 1193 l 522 1392 l 401 1392 z m 353 0 l 571 0 l 571 469 l 910 1093 l 661 1093 l 462 713 l 262 1093 l 14 1093 l 353 469 z "},"ÿ":{"ha":924,"x_min":0,"x_max":0,"o":"m 311 1206 b 392 1287 355 1206 392 1242 b 311 1369 392 1331 355 1369 b 229 1287 266 1369 229 1331 b 311 1206 229 1242 266 1206 z m 614 1206 b 696 1287 659 1206 696 1242 b 614 1369 696 1331 659 1369 b 533 1287 570 1369 533 1331 b 614 1206 533 1242 570 1206 z m 353 0 l 571 0 l 571 469 l 910 1093 l 661 1093 l 462 713 l 262 1093 l 14 1093 l 353 469 z "},"Ÿ":{"ha":924,"x_min":0,"x_max":0,"o":"m 311 1206 b 392 1287 355 1206 392 1242 b 311 1369 392 1331 355 1369 b 229 1287 266 1369 229 1331 b 311 1206 229 1242 266 1206 z m 614 1206 b 696 1287 659 1206 696 1242 b 614 1369 696 1331 659 1369 b 533 1287 570 1369 533 1331 b 614 1206 533 1242 570 1206 z m 353 0 l 571 0 l 571 469 l 910 1093 l 661 1093 l 462 713 l 262 1093 l 14 1093 l 353 469 z "},"Ỳ":{"ha":924,"x_min":0,"x_max":0,"o":"m 466 1183 l 621 1183 l 494 1405 l 304 1405 z m 353 0 l 571 0 l 571 469 l 910 1093 l 661 1093 l 462 713 l 262 1093 l 14 1093 l 353 469 z "},"ỳ":{"ha":924,"x_min":0,"x_max":0,"o":"m 466 1183 l 621 1183 l 494 1405 l 304 1405 z m 353 0 l 571 0 l 571 469 l 910 1093 l 661 1093 l 462 713 l 262 1093 l 14 1093 l 353 469 z "},"Z":{"ha":883,"x_min":0,"x_max":0,"o":"m 57 0 l 826 0 l 826 218 l 405 218 l 826 1093 l 57 1093 l 57 876 l 478 876 z "},"z":{"ha":883,"x_min":0,"x_max":0,"o":"m 57 0 l 826 0 l 826 218 l 405 218 l 826 1093 l 57 1093 l 57 876 l 478 876 z "},"Ź":{"ha":883,"x_min":0,"x_max":0,"o":"m 489 1183 l 650 1405 l 460 1405 l 334 1183 z m 57 0 l 826 0 l 826 218 l 405 218 l 826 1093 l 57 1093 l 57 876 l 478 876 z "},"ź":{"ha":883,"x_min":0,"x_max":0,"o":"m 489 1183 l 650 1405 l 460 1405 l 334 1183 z m 57 0 l 826 0 l 826 218 l 405 218 l 826 1093 l 57 1093 l 57 876 l 478 876 z "},"Ž":{"ha":883,"x_min":0,"x_max":0,"o":"m 166 1392 l 380 1193 l 501 1193 l 718 1392 l 542 1392 l 441 1292 l 340 1392 z m 57 0 l 826 0 l 826 218 l 405 218 l 826 1093 l 57 1093 l 57 876 l 478 876 z "},"ž":{"ha":883,"x_min":0,"x_max":0,"o":"m 166 1392 l 380 1193 l 501 1193 l 718 1392 l 542 1392 l 441 1292 l 340 1392 z m 57 0 l 826 0 l 826 218 l 405 218 l 826 1093 l 57 1093 l 57 876 l 478 876 z "},"Ż":{"ha":883,"x_min":0,"x_max":0,"o":"m 442 1204 b 537 1299 494 1204 537 1246 b 442 1394 537 1350 494 1394 b 347 1298 390 1394 347 1350 b 442 1204 347 1247 389 1204 z m 57 0 l 826 0 l 826 218 l 405 218 l 826 1093 l 57 1093 l 57 876 l 478 876 z "},"ż":{"ha":883,"x_min":0,"x_max":0,"o":"m 442 1204 b 537 1299 494 1204 537 1246 b 442 1394 537 1350 494 1394 b 347 1298 390 1394 347 1350 b 442 1204 347 1247 389 1204 z m 57 0 l 826 0 l 826 218 l 405 218 l 826 1093 l 57 1093 l 57 876 l 478 876 z "},"i":{"ha":410,"x_min":0,"x_max":0,"o":"m 95 0 l 315 0 l 315 1093 l 95 1093 z "},"ı":{"ha":410,"x_min":0,"x_max":0,"o":"m 95 0 l 315 0 l 315 1093 l 95 1093 z "},".":{"ha":423,"x_min":0,"x_max":0,"o":"m 212 -35 b 352 105 288 -35 352 28 b 212 245 352 181 288 245 b 71 105 135 245 71 182 b 212 -35 71 28 134 -35 z "},",":{"ha":443,"x_min":0,"x_max":0,"o":"m 155 -247 b 372 45 292 -247 372 -100 b 220 245 372 175 307 245 b 71 97 134 245 71 177 b 193 -30 71 11 146 -30 b 203 -81 201 -45 203 -53 b 75 -208 203 -167 128 -208 b 155 -247 75 -218 103 -247 z "},":":{"ha":423,"x_min":0,"x_max":0,"o":"m 212 505 b 352 644 288 505 352 568 b 212 785 352 721 288 785 b 71 644 134 785 71 722 b 212 505 71 567 134 505 z m 212 0 b 352 140 288 0 352 64 b 212 281 352 216 288 281 b 71 140 135 281 71 217 b 212 0 71 63 134 0 z "},";":{"ha":458,"x_min":0,"x_max":0,"o":"m 212 505 b 352 644 288 505 352 568 b 212 785 352 721 288 785 b 71 644 134 785 71 722 b 212 505 71 567 134 505 z m 170 -247 b 387 45 308 -247 387 -100 b 236 245 387 175 323 245 b 87 97 149 245 87 177 b 209 -30 87 11 161 -30 b 219 -81 217 -45 219 -53 b 91 -208 219 -167 144 -208 b 170 -247 91 -218 119 -247 z "},"…":{"ha":1501,"x_min":0,"x_max":0,"o":"m 276 -35 b 416 105 353 -35 416 28 b 276 245 416 181 352 245 b 136 105 199 245 136 182 b 276 -35 136 28 199 -35 z m 751 -35 b 891 105 827 -35 891 28 b 751 245 891 181 827 245 b 610 105 674 245 610 182 b 751 -35 610 28 673 -35 z m 1225 -35 b 1366 105 1302 -35 1366 28 b 1225 245 1366 181 1301 245 b 1085 105 1149 245 1085 182 b 1225 -35 1085 28 1148 -35 z "},"!":{"ha":471,"x_min":0,"x_max":0,"o":"m 143 378 l 326 378 l 361 1093 l 107 1093 z m 235 -35 b 376 102 312 -35 376 26 b 234 243 376 178 312 243 b 95 105 159 243 95 182 b 235 -35 95 28 158 -35 z "},"¡":{"ha":471,"x_min":0,"x_max":0,"o":"m 235 823 b 95 686 159 823 95 762 b 237 545 95 610 159 545 b 376 683 312 545 376 606 b 235 823 376 760 313 823 z m 328 410 l 144 410 l 110 -305 l 363 -305 z "},"?":{"ha":707,"x_min":0,"x_max":0,"o":"m 212 376 l 419 377 b 418 408 418 388 418 398 b 570 606 418 527 501 536 b 660 842 633 672 660 739 b 328 1134 660 977 527 1134 b 47 983 138 1134 69 1023 l 125 810 b 316 922 155 880 232 922 b 460 801 404 922 460 880 b 406 696 460 758 433 718 b 212 396 280 600 212 519 z m 317 -35 b 458 102 394 -35 458 26 b 316 243 458 178 394 243 b 177 105 240 243 177 182 b 317 -35 177 29 239 -35 z "},"¿":{"ha":707,"x_min":0,"x_max":0,"o":"m 390 846 b 250 709 313 846 250 786 b 391 569 250 633 313 569 b 530 707 467 569 530 630 b 390 846 530 783 469 846 z m 496 435 l 288 435 b 290 404 290 424 290 414 b 138 205 290 285 206 276 b 47 -31 74 140 47 73 b 379 -322 47 -165 180 -322 b 660 -171 569 -322 638 -211 l 582 1 b 391 -110 553 -68 475 -110 b 248 11 304 -110 248 -68 b 302 115 248 54 274 94 b 496 416 427 212 496 293 z "},"·":{"ha":423,"x_min":0,"x_max":0,"o":"m 212 393 b 352 532 288 393 352 456 b 212 673 352 608 288 673 b 71 532 135 673 71 609 b 212 393 71 455 134 393 z "},"•":{"ha":715,"x_min":0,"x_max":0,"o":"m 357 313 b 579 532 479 313 579 412 b 357 753 579 654 479 753 b 136 532 235 753 136 653 b 357 313 136 411 235 313 z "},"*":{"ha":587,"x_min":0,"x_max":0,"o":"m 221 641 l 366 641 l 340 815 l 463 709 l 540 822 l 366 891 l 540 966 l 463 1080 l 340 973 l 366 1148 l 221 1148 l 247 973 l 124 1080 l 47 966 l 221 895 l 47 822 l 124 709 l 247 817 z "},"#":{"ha":1028,"x_min":0,"x_max":0,"o":"m 974 637 l 994 801 l 841 801 l 880 1093 l 703 1093 l 665 801 l 444 801 l 483 1093 l 307 1093 l 268 801 l 105 801 l 83 637 l 247 637 l 218 417 l 54 417 l 34 254 l 196 254 l 163 0 l 339 0 l 372 254 l 593 254 l 559 0 l 736 0 l 769 254 l 923 254 l 945 417 l 791 417 l 820 637 z m 614 417 l 394 417 l 423 637 l 644 637 z "},"/":{"ha":661,"x_min":0,"x_max":0,"o":"m 14 -81 l 206 -81 l 646 1175 l 454 1175 z "},"\\":{"ha":661,"x_min":0,"x_max":0,"o":"m 646 -81 l 207 1175 l 14 1175 l 454 -81 z "},"‥":{"ha":986,"x_min":0,"x_max":0,"o":"m 276 -35 b 416 105 353 -35 416 28 b 276 245 416 181 352 245 b 136 105 199 245 136 182 b 276 -35 136 28 199 -35 z m 710 -35 b 850 105 787 -35 850 28 b 710 245 850 181 786 245 b 570 105 633 245 570 182 b 710 -35 570 28 633 -35 z "},"(":{"ha":480,"x_min":0,"x_max":0,"o":"m 235 -81 l 433 -81 b 256 547 334 81 256 355 b 431 1175 256 739 333 1012 l 235 1175 b 47 547 87 967 47 742 b 235 -81 47 353 87 125 z "},")":{"ha":480,"x_min":0,"x_max":0,"o":"m 245 -81 b 433 547 393 125 433 353 b 245 1175 433 742 393 967 l 49 1175 b 224 547 147 1012 224 739 b 47 -81 224 355 146 81 z "},"{":{"ha":601,"x_min":0,"x_max":0,"o":"m 385 -81 l 553 -81 l 553 83 l 444 83 b 385 214 412 83 385 142 l 385 281 b 241 553 385 431 320 553 b 385 824 320 553 385 675 l 385 880 b 444 1008 385 949 412 1007 l 553 1010 l 553 1175 l 385 1175 b 197 974 281 1175 197 1084 l 197 846 b 47 615 197 719 130 615 l 47 490 b 197 259 130 490 197 386 l 197 119 b 385 -81 197 9 281 -81 z "},"}":{"ha":601,"x_min":0,"x_max":0,"o":"m 216 -81 b 404 119 319 -81 404 9 l 404 259 b 553 490 404 386 471 490 l 553 615 b 404 846 471 615 404 719 l 404 974 b 216 1175 404 1084 319 1175 l 47 1175 l 47 1010 l 157 1008 b 216 880 189 1007 216 949 l 216 824 b 360 553 216 675 281 553 b 216 281 281 553 216 431 l 216 214 b 157 83 216 142 189 83 l 47 83 l 47 -81 z "},"[":{"ha":499,"x_min":0,"x_max":0,"o":"m 452 1010 l 452 1175 l 95 1175 l 95 -81 l 452 -81 l 452 83 l 283 83 l 283 1010 z "},"]":{"ha":499,"x_min":0,"x_max":0,"o":"m 404 1175 l 47 1175 l 47 1010 l 216 1010 l 216 83 l 47 83 l 47 -81 l 404 -81 z "},"-":{"ha":631,"x_min":0,"x_max":0,"o":"m 47 437 l 583 437 l 583 629 l 47 629 z "},"–":{"ha":960,"x_min":0,"x_max":0,"o":"m 47 437 l 913 437 l 913 629 l 47 629 z "},"—":{"ha":1389,"x_min":0,"x_max":0,"o":"m 30 437 l 1359 437 l 1359 629 l 30 629 z "},"‒":{"ha":705,"x_min":0,"x_max":0,"o":"m 47 437 l 658 437 l 658 629 l 47 629 z "},"_":{"ha":820,"x_min":0,"x_max":0,"o":"m 0 -75 l 820 -75 l 820 75 l 0 75 z "},"‚":{"ha":368,"x_min":0,"x_max":0,"o":"m 123 -205 b 321 60 249 -205 321 -72 b 183 243 321 179 262 243 b 47 108 104 243 47 180 b 159 -7 47 30 115 -7 b 168 -54 166 -21 168 -28 b 52 -169 168 -132 100 -169 b 123 -205 52 -179 77 -205 z "},"„":{"ha":723,"x_min":0,"x_max":0,"o":"m 123 -205 b 321 60 249 -205 321 -73 b 183 242 321 178 262 242 b 47 107 104 242 47 180 b 159 -8 47 29 115 -8 b 168 -54 166 -22 168 -29 b 52 -170 168 -133 100 -170 b 123 -205 52 -180 77 -205 z m 478 -205 b 675 60 604 -205 675 -73 b 538 242 675 178 617 242 b 402 107 459 242 402 180 b 513 -8 402 29 470 -8 b 523 -54 521 -22 523 -29 b 406 -170 523 -133 454 -170 b 478 -205 406 -180 431 -205 z "},"“":{"ha":723,"x_min":0,"x_max":0,"o":"m 245 1109 b 47 844 119 1109 47 977 b 185 662 47 726 106 662 b 321 797 264 662 321 724 b 210 912 321 875 253 912 b 200 958 202 926 200 933 b 317 1074 200 1037 269 1074 b 245 1109 317 1084 292 1109 z m 600 1109 b 402 844 474 1109 402 977 b 540 662 402 726 460 662 b 675 797 618 662 675 724 b 564 912 675 875 608 912 b 555 958 557 926 555 933 b 671 1074 555 1037 623 1074 b 600 1109 671 1084 646 1109 z "},"”":{"ha":723,"x_min":0,"x_max":0,"o":"m 123 669 b 321 934 249 669 321 802 b 183 1116 321 1053 262 1116 b 47 981 104 1116 47 1054 b 159 866 47 903 115 866 b 168 820 166 852 168 845 b 52 705 168 741 100 705 b 123 669 52 694 77 669 z m 478 669 b 675 934 604 669 675 802 b 538 1116 675 1053 617 1116 b 402 981 459 1116 402 1054 b 513 866 402 903 470 866 b 523 820 521 852 523 845 b 406 705 523 741 454 705 b 478 669 406 694 431 669 z "},"‘":{"ha":368,"x_min":0,"x_max":0,"o":"m 245 1109 b 47 844 119 1109 47 977 b 185 662 47 726 106 662 b 321 797 264 662 321 724 b 210 912 321 875 253 912 b 200 958 202 926 200 933 b 317 1074 200 1037 269 1074 b 245 1109 317 1084 292 1109 z "},"’":{"ha":368,"x_min":0,"x_max":0,"o":"m 123 671 b 321 936 249 671 321 804 b 183 1118 321 1055 262 1118 b 47 983 104 1118 47 1056 b 159 868 47 905 115 868 b 168 822 166 854 168 847 b 52 707 168 743 100 707 b 123 671 52 696 77 671 z "},"‛":{"ha":368,"x_min":0,"x_max":0,"o":"m 245 675 b 317 711 292 675 317 701 b 200 826 269 711 200 747 b 210 872 200 851 202 859 b 321 987 253 872 321 909 b 185 1122 321 1060 264 1122 b 47 940 106 1122 47 1059 b 245 675 47 808 119 675 z "},"«":{"ha":851,"x_min":0,"x_max":0,"o":"m 444 880 l 306 907 l 47 543 l 306 178 l 444 205 l 250 543 z m 804 880 l 665 907 l 407 543 l 665 178 l 804 205 l 610 543 z "},"»":{"ha":851,"x_min":0,"x_max":0,"o":"m 186 907 l 47 880 l 241 543 l 47 205 l 186 178 l 444 543 z m 545 907 l 407 880 l 601 543 l 407 205 l 545 178 l 804 543 z "},"‹":{"ha":492,"x_min":0,"x_max":0,"o":"m 444 880 l 306 907 l 47 543 l 306 178 l 444 205 l 250 543 z "},"›":{"ha":492,"x_min":0,"x_max":0,"o":"m 186 907 l 47 880 l 241 543 l 47 205 l 186 178 l 444 543 z "},"\"":{"ha":588,"x_min":0,"x_max":0,"o":"m 96 765 l 219 765 l 268 1121 l 47 1121 z m 368 765 l 492 765 l 541 1121 l 320 1121 z "},"'":{"ha":315,"x_min":0,"x_max":0,"o":"m 96 765 l 219 765 l 268 1121 l 47 1121 z "},"　":{"ha":1389,"x_min":0,"x_max":0,"o":""}," ":{"ha":6250,"x_min":0,"x_max":0,"o":""}," ":{"ha":1389,"x_min":0,"x_max":0,"o":""}," ":{"ha":1389,"x_min":0,"x_max":0,"o":""}," ":{"ha":694,"x_min":0,"x_max":0,"o":""}," ":{"ha":694,"x_min":0,"x_max":0,"o":""}," ":{"ha":1001,"x_min":0,"x_max":0,"o":""}," ":{"ha":347,"x_min":0,"x_max":0,"o":""}," ":{"ha":199,"x_min":0,"x_max":0,"o":""}," ":{"ha":326,"x_min":0,"x_max":0,"o":""}," ":{"ha":423,"x_min":0,"x_max":0,"o":""}," ":{"ha":231,"x_min":0,"x_max":0,"o":""}," ":{"ha":278,"x_min":0,"x_max":0,"o":""}," ":{"ha":463,"x_min":0,"x_max":0,"o":""},"​":{"ha":0,"x_min":0,"x_max":0,"o":""},"‍":{"ha":0,"x_min":0,"x_max":0,"o":""},"‌":{"ha":0,"x_min":0,"x_max":0,"o":""},"":{"ha":1351,"x_min":0,"x_max":0,"o":""},"฿":{"ha":871,"x_min":0,"x_max":0,"o":"m 608 616 b 711 804 634 616 711 688 b 488 1081 711 925 627 1043 l 488 1246 l 303 1246 l 303 1093 l 95 1093 l 95 0 l 303 0 l 303 -153 l 488 -153 l 488 0 l 508 0 b 849 332 733 0 849 170 b 608 616 849 507 713 616 z m 314 880 l 407 880 b 506 774 458 880 506 836 b 403 666 506 711 455 666 l 314 666 z m 488 214 l 314 214 l 314 473 l 487 473 b 635 347 591 473 635 410 b 488 214 635 263 559 214 z "},"₿":{"ha":871,"x_min":0,"x_max":0,"o":"m 849 332 b 608 616 849 507 713 616 b 711 804 634 616 711 688 b 556 1054 711 904 654 1002 l 556 1246 l 418 1246 l 418 1093 b 393 1093 410 1093 402 1093 l 359 1093 l 359 1246 l 222 1246 l 222 1093 l 95 1093 l 95 0 l 222 0 l 222 -153 l 359 -153 l 359 0 l 418 0 l 418 -153 l 556 -153 l 556 3 b 849 332 749 25 849 182 z m 407 880 b 506 774 458 880 506 836 b 403 666 506 711 455 666 l 314 666 l 314 880 z m 488 214 l 314 214 l 314 473 l 487 473 b 635 347 591 473 635 410 b 488 214 635 263 559 214 z "},"¢":{"ha":804,"x_min":0,"x_max":0,"o":"m 760 178 l 633 345 b 479 283 593 307 538 283 b 253 509 353 283 253 384 b 479 734 253 633 353 734 b 632 673 538 734 592 711 l 749 848 b 543 938 690 895 620 926 l 543 1086 l 366 1085 l 366 928 b 44 509 180 878 44 709 b 366 90 44 308 180 139 l 366 -59 l 543 -59 l 543 79 b 760 178 625 92 699 126 z "},"¤":{"ha":835,"x_min":0,"x_max":0,"o":"m 706 547 b 659 703 706 605 689 659 l 787 830 l 705 913 l 576 786 b 419 833 531 816 477 833 b 263 787 361 833 308 816 l 136 916 l 54 834 l 181 705 b 133 545 151 659 133 604 b 178 393 133 489 149 437 l 47 265 l 129 182 l 258 310 b 418 260 304 279 359 260 b 574 307 475 260 529 277 l 702 178 l 784 259 l 657 387 b 706 547 688 433 706 488 z m 419 429 b 301 547 355 429 301 481 b 415 664 301 612 351 664 b 536 547 476 664 536 616 b 419 429 536 482 484 429 z "},"$":{"ha":857,"x_min":0,"x_max":0,"o":"m 819 304 b 524 650 819 473 705 565 b 316 797 399 709 316 732 b 459 901 316 853 377 901 b 616 809 520 901 583 874 l 778 922 b 536 1110 738 1030 648 1091 l 536 1246 l 351 1246 l 351 1104 b 95 802 202 1069 95 957 b 353 500 95 628 230 561 b 598 300 467 443 598 380 b 426 199 598 241 529 199 b 214 312 332 199 262 235 l 38 189 b 351 -18 101 72 208 0 l 351 -153 l 536 -153 l 536 -11 b 819 304 707 24 819 139 z "},"€":{"ha":1152,"x_min":0,"x_max":0,"o":"m 718 199 b 406 408 592 199 463 283 l 815 408 l 827 517 l 377 517 b 376 545 376 526 376 536 b 378 585 376 558 376 572 l 833 585 l 845 694 l 412 694 b 719 892 470 811 593 892 b 977 774 813 892 903 847 l 1104 947 b 721 1116 989 1057 863 1114 b 174 694 464 1116 241 934 l 59 694 l 47 585 l 155 585 b 153 546 154 572 153 559 b 154 517 153 536 153 527 l 59 517 l 47 408 l 171 408 b 725 -21 234 165 458 -21 b 1104 146 890 -21 1008 51 l 978 324 b 718 199 905 253 819 199 z "},"ƒ":{"ha":869,"x_min":0,"x_max":0,"o":"m 739 894 l 840 894 l 840 1104 l 698 1104 b 374 772 496 1104 419 1002 l 353 665 l 81 665 l 81 475 l 317 475 l 309 438 b 130 210 264 210 220 210 l 28 210 l 28 0 l 171 0 b 498 355 381 0 451 115 l 522 475 l 789 475 l 789 665 l 559 665 l 564 688 b 739 894 601 873 638 894 z "},"₣":{"ha":783,"x_min":0,"x_max":0,"o":"m 754 877 l 754 1096 l 95 1096 l 95 330 l 7 330 l 7 174 l 95 174 l 95 -1 l 315 -1 l 315 174 l 542 174 l 542 330 l 315 330 l 315 437 l 692 437 l 692 656 l 315 656 l 315 877 z "},"₭":{"ha":923,"x_min":0,"x_max":0,"o":"m 646 0 l 913 0 l 597 454 l 836 454 l 836 644 l 581 644 l 875 1093 l 621 1093 l 330 644 l 314 644 l 314 1093 l 95 1093 l 95 644 l 7 644 l 7 454 l 95 454 l 95 0 l 314 0 l 314 454 l 331 454 z "},"₤":{"ha":804,"x_min":0,"x_max":0,"o":"m 355 197 b 403 358 385 248 399 297 l 573 358 l 573 500 l 388 500 b 372 554 383 518 377 536 l 573 554 l 573 696 l 345 696 l 345 707 b 540 913 345 815 412 913 b 635 883 576 913 616 901 l 741 1066 b 531 1111 673 1097 589 1111 b 123 707 283 1111 123 935 l 123 696 l 53 696 l 53 554 l 150 554 l 166 500 l 53 500 l 53 358 l 183 358 b 132 197 178 304 162 251 l 47 197 l 47 0 l 757 0 l 757 197 z "},"₦":{"ha":1109,"x_min":0,"x_max":0,"o":"m 1103 644 l 994 644 l 994 1096 l 774 1096 l 774 484 l 126 1114 l 115 1114 l 115 644 l 7 644 l 7 454 l 115 454 l 115 -1 l 335 -1 l 335 611 l 984 -20 l 994 -20 l 994 454 l 1103 454 z "},"₱":{"ha":1052,"x_min":0,"x_max":0,"o":"m 1023 882 l 871 882 b 524 1093 809 1006 676 1093 l 140 1093 l 140 882 l 28 882 l 28 739 l 140 739 l 140 712 l 28 712 l 28 570 l 140 570 l 140 0 l 359 0 l 359 355 l 524 355 b 873 570 678 355 812 444 l 1023 570 l 1023 712 l 908 712 l 908 724 b 907 739 908 729 908 734 l 1023 739 z m 524 572 l 359 573 l 359 876 l 524 876 b 688 726 614 876 688 808 b 524 572 688 641 614 572 z "},"₽":{"ha":1008,"x_min":0,"x_max":0,"o":"m 556 396 b 961 744 788 396 961 541 b 576 1093 961 927 808 1093 l 193 1093 l 193 600 l 47 600 l 47 396 l 193 396 l 193 307 l 47 307 l 47 151 l 193 151 l 193 0 l 412 0 l 412 151 l 699 151 l 699 307 l 412 307 l 412 396 z m 412 876 l 576 876 b 741 746 688 876 741 808 b 576 613 741 661 688 613 l 412 614 z "},"₨":{"ha":919,"x_min":0,"x_max":0,"o":"m 562 416 b 753 677 650 442 732 545 l 847 677 l 873 823 l 750 823 b 722 903 743 852 734 878 l 841 903 l 875 1093 l 129 1093 l 95 903 l 377 903 b 513 823 437 903 487 873 l 127 823 l 101 677 l 522 677 b 377 573 500 614 447 573 l 110 574 l 110 568 l 591 0 l 860 0 l 488 408 b 562 416 513 406 543 410 z "},"£":{"ha":804,"x_min":0,"x_max":0,"o":"m 355 197 b 404 395 391 257 404 317 b 399 452 404 415 402 433 l 573 452 l 573 608 l 357 608 b 345 707 349 637 345 670 b 540 913 345 815 412 913 b 635 883 576 913 616 901 l 741 1066 b 531 1111 673 1097 589 1111 b 123 707 283 1111 123 935 b 136 608 123 671 128 639 l 53 608 l 53 452 l 178 452 b 185 395 182 433 185 414 b 132 197 185 329 169 263 l 47 197 l 47 0 l 757 0 l 757 197 z "},"₸":{"ha":815,"x_min":0,"x_max":0,"o":"m 28 1093 l 28 882 l 787 882 l 787 1093 z m 787 814 l 28 814 l 28 603 l 292 603 l 298 0 l 518 0 l 512 603 l 787 603 z "},"₮":{"ha":815,"x_min":0,"x_max":0,"o":"m 787 876 l 787 1093 l 28 1093 l 28 876 l 298 876 l 298 611 l 119 520 l 119 375 l 298 466 l 298 393 l 119 302 l 119 157 l 298 248 l 298 0 l 518 0 l 518 360 l 695 450 l 695 595 l 518 505 l 518 578 l 695 668 l 695 813 l 518 723 l 518 876 z "},"₩":{"ha":1311,"x_min":0,"x_max":0,"o":"m 1297 1093 l 1059 1093 l 892 543 l 658 1089 l 654 1089 l 419 542 l 251 1093 l 14 1093 l 159 644 l 20 644 l 20 454 l 220 454 l 370 -14 l 382 -14 l 653 581 l 928 -14 l 941 -14 l 1091 454 l 1291 454 l 1291 644 l 1152 644 z "},"¥":{"ha":991,"x_min":0,"x_max":0,"o":"m 943 1093 l 694 1093 l 495 713 l 296 1093 l 47 1093 l 307 616 l 83 616 l 83 447 l 386 447 l 386 374 l 83 374 l 83 205 l 386 205 l 386 0 l 604 0 l 604 205 l 919 205 l 919 374 l 604 374 l 604 447 l 919 447 l 919 616 l 684 616 z "},"+":{"ha":869,"x_min":0,"x_max":0,"o":"m 774 628 l 536 628 l 536 897 l 333 897 l 333 628 l 95 628 l 95 425 l 333 425 l 333 155 l 536 155 l 536 425 l 774 425 z "},"−":{"ha":853,"x_min":0,"x_max":0,"o":"m 95 425 l 758 425 l 758 629 l 95 629 z "},"×":{"ha":920,"x_min":0,"x_max":0,"o":"m 825 274 l 588 527 l 824 781 l 687 909 l 460 665 l 232 909 l 95 781 l 332 527 l 96 273 l 233 145 l 460 389 l 688 146 z "},"÷":{"ha":1028,"x_min":0,"x_max":0,"o":"m 503 730 b 640 865 577 730 640 793 b 502 1002 640 938 576 1002 b 367 866 429 1002 367 941 b 503 730 367 791 429 729 z m 95 431 l 933 431 l 933 613 l 95 613 z m 503 33 b 640 170 578 33 640 98 b 503 306 640 243 576 306 b 367 170 431 306 367 246 b 503 33 367 95 429 33 z "},"=":{"ha":947,"x_min":0,"x_max":0,"o":"m 95 621 l 852 621 l 852 814 l 95 814 z m 95 238 l 852 238 l 852 430 l 95 430 z "},"≠":{"ha":947,"x_min":0,"x_max":0,"o":"m 852 621 l 852 814 l 651 814 l 733 1053 l 604 1053 l 522 814 l 95 814 l 95 621 l 456 621 l 391 430 l 95 430 l 95 238 l 325 238 l 251 22 l 380 22 l 454 238 l 852 238 l 852 430 l 519 430 l 585 621 z "},">":{"ha":847,"x_min":0,"x_max":0,"o":"m 102 141 l 752 555 l 752 568 l 95 982 l 102 753 l 439 562 l 102 370 z "},"<":{"ha":847,"x_min":0,"x_max":0,"o":"m 745 141 l 745 370 l 408 562 l 745 753 l 752 982 l 95 568 l 95 555 z "},"≥":{"ha":858,"x_min":0,"x_max":0,"o":"m 102 357 l 752 688 l 752 699 l 95 1029 l 102 847 l 439 693 l 102 541 z m 763 68 l 763 224 l 101 224 l 101 68 z "},"≤":{"ha":858,"x_min":0,"x_max":0,"o":"m 756 357 l 756 541 l 418 693 l 756 847 l 763 1029 l 106 699 l 106 688 z m 95 68 l 757 68 l 757 224 l 95 224 z "},"±":{"ha":794,"x_min":0,"x_max":0,"o":"m 499 778 l 499 958 l 296 958 l 296 778 l 95 778 l 95 593 l 296 593 l 296 393 l 499 393 l 499 593 l 699 593 l 699 778 z m 95 136 l 699 136 l 699 307 l 95 307 z "},"≈":{"ha":915,"x_min":0,"x_max":0,"o":"m 231 581 b 323 693 245 646 269 693 b 591 581 412 693 457 581 b 820 787 654 581 782 601 l 683 840 b 591 728 669 775 645 728 b 323 840 503 728 457 840 b 95 634 260 840 133 820 z m 231 233 b 323 345 245 298 269 345 b 591 233 412 345 457 233 b 820 439 654 233 782 253 l 683 492 b 591 380 669 427 645 380 b 323 492 503 380 457 492 b 95 286 260 492 133 472 z "},"~":{"ha":1082,"x_min":0,"x_max":0,"o":"m 263 376 b 376 514 281 456 309 514 b 706 376 484 514 541 376 b 987 629 783 376 940 400 l 819 694 b 706 557 802 615 772 557 b 376 694 597 557 541 694 b 95 441 299 694 142 671 z "},"¬":{"ha":1004,"x_min":0,"x_max":0,"o":"m 95 703 l 95 499 l 706 499 l 706 277 l 909 277 l 909 703 z "},"^":{"ha":644,"x_min":0,"x_max":0,"o":"m 14 743 l 204 743 l 322 896 l 439 743 l 630 743 l 328 1139 l 315 1139 z "},"∅":{"ha":1010,"x_min":0,"x_max":0,"o":"m 795 873 l 928 1084 l 765 1084 l 676 943 b 505 977 623 965 566 977 b 47 519 253 977 47 771 b 196 183 47 387 104 267 l 74 -10 l 237 -10 l 311 106 b 505 62 370 78 435 62 b 962 521 756 62 962 269 b 795 873 962 662 897 789 z m 233 519 b 505 789 233 668 355 789 b 573 781 528 789 551 786 l 298 345 b 233 519 257 391 233 452 z m 505 250 b 412 266 472 250 441 255 l 693 712 b 774 519 743 663 774 595 b 505 250 774 371 653 250 z "},"∞":{"ha":1609,"x_min":0,"x_max":0,"o":"m 1185 939 b 804 738 1035 939 897 859 b 424 939 712 859 574 939 b 47 549 217 939 47 767 b 424 159 47 331 217 159 b 804 361 574 159 712 239 b 1185 159 897 239 1035 159 b 1561 549 1392 159 1561 331 b 1185 939 1561 767 1392 939 z m 426 354 b 243 549 330 354 243 441 b 426 745 243 657 328 745 b 711 549 534 745 635 662 b 426 354 635 436 534 354 z m 1183 354 b 898 549 1075 354 973 436 b 1183 745 973 662 1075 745 b 1365 549 1280 745 1365 657 b 1183 354 1365 441 1278 354 z "},"∫":{"ha":801,"x_min":0,"x_max":0,"o":"m 28 -203 l 137 -203 b 429 43 303 -203 406 -121 l 559 949 b 705 1092 571 1031 625 1092 l 772 1092 l 772 1289 l 664 1289 b 372 1042 498 1289 395 1206 l 241 136 b 96 -7 230 54 176 -7 l 28 -7 z "},"∏":{"ha":1006,"x_min":0,"x_max":0,"o":"m 978 1322 l 28 1322 l 28 1119 l 189 1119 l 189 -170 l 406 -170 l 406 1119 l 609 1119 l 609 -170 l 826 -170 l 826 1119 l 978 1119 z "},"∑":{"ha":1005,"x_min":0,"x_max":0,"o":"m 939 1289 l 14 1289 l 14 1276 l 456 543 l 14 -191 l 14 -203 l 938 -203 l 938 -1 l 378 0 l 703 542 l 703 544 l 378 1085 l 939 1085 z "},"√":{"ha":720,"x_min":0,"x_max":0,"o":"m 1059 1462 l 666 1462 l 340 476 l 224 856 l 14 856 l 336 -38 l 351 -38 l 801 1259 l 1059 1259 z "},"µ":{"ha":916,"x_min":0,"x_max":0,"o":"m 618 814 l 618 374 b 461 182 618 231 566 182 b 297 374 358 182 297 252 l 297 814 l 88 814 l 88 -305 l 297 -305 l 297 75 b 531 -20 355 15 435 -20 b 827 374 687 -20 827 56 l 827 814 z "},"∂":{"ha":855,"x_min":0,"x_max":0,"o":"m 420 -27 b 811 458 659 -27 811 166 b 484 1103 811 834 631 1042 l 315 977 b 621 602 503 892 606 766 b 393 732 594 682 503 732 b 44 353 195 732 44 562 b 420 -27 44 149 191 -27 z m 437 182 b 253 353 335 182 253 258 b 434 524 253 450 340 524 b 614 349 534 524 614 442 b 437 182 614 260 541 182 z "},"%":{"ha":1200,"x_min":0,"x_max":0,"o":"m 303 595 b 559 850 443 595 559 710 b 304 1106 559 991 444 1106 b 47 850 164 1106 47 990 b 303 595 47 709 164 595 z m 131 0 l 315 0 l 1059 1094 l 876 1094 z m 303 736 b 189 850 239 736 189 787 b 303 964 189 913 239 964 b 416 850 366 964 416 913 b 303 736 416 787 366 736 z m 897 -14 b 1153 243 1036 -14 1153 102 b 897 498 1153 383 1037 498 b 641 242 758 498 641 382 b 897 -14 641 102 758 -14 z m 897 128 b 782 242 833 128 782 179 b 897 355 782 304 833 355 b 1010 242 960 355 1010 304 b 897 128 1010 179 960 128 z "},"‰":{"ha":1748,"x_min":0,"x_max":0,"o":"m 303 595 b 559 850 443 595 559 710 b 304 1106 559 991 444 1106 b 47 850 164 1106 47 990 b 303 595 47 709 164 595 z m 131 0 l 315 0 l 1059 1094 l 876 1094 z m 303 736 b 189 850 239 736 189 787 b 303 964 189 913 239 964 b 416 850 366 964 416 913 b 303 736 416 787 366 736 z m 897 -14 b 1153 243 1036 -14 1153 102 b 897 498 1153 383 1037 498 b 641 242 758 498 641 382 b 897 -14 641 102 758 -14 z m 1444 -14 b 1700 243 1584 -14 1700 102 b 1444 498 1700 383 1584 498 b 1188 242 1305 498 1188 382 b 1444 -14 1188 102 1305 -14 z m 897 128 b 782 242 833 128 782 179 b 897 355 782 304 833 355 b 1010 242 960 355 1010 304 b 897 128 1010 179 960 128 z m 1444 128 b 1329 242 1380 128 1329 179 b 1444 355 1329 304 1380 355 b 1557 242 1507 355 1557 304 b 1444 128 1557 179 1507 128 z "},"↑":{"ha":1457,"x_min":0,"x_max":0,"o":"m 1146 686 l 728 1117 l 311 686 l 425 572 l 633 784 l 633 -68 l 823 -68 l 823 784 l 1032 572 z "},"↗":{"ha":1457,"x_min":0,"x_max":0,"o":"m 581 948 l 581 787 l 879 789 l 276 186 l 410 52 l 1013 655 l 1010 357 l 1172 357 l 1181 958 z "},"→":{"ha":1457,"x_min":0,"x_max":0,"o":"m 890 942 l 776 828 l 988 619 l 136 619 l 136 429 l 988 429 l 776 220 l 890 106 l 1321 524 z "},"↘":{"ha":1457,"x_min":0,"x_max":0,"o":"m 581 101 l 1181 92 l 1171 692 l 1010 692 l 1013 394 l 410 997 l 275 863 l 878 260 l 581 262 z "},"↓":{"ha":1457,"x_min":0,"x_max":0,"o":"m 1032 477 l 823 264 l 823 1117 l 633 1117 l 633 264 l 425 477 l 311 363 l 728 -68 l 1146 363 z "},"↙":{"ha":1457,"x_min":0,"x_max":0,"o":"m 1215 876 l 1080 1010 l 477 408 l 480 705 l 319 705 l 309 105 l 909 115 l 909 276 l 612 273 z "},"←":{"ha":1457,"x_min":0,"x_max":0,"o":"m 1321 619 l 469 619 l 681 828 l 567 942 l 136 524 l 567 106 l 681 220 l 469 429 l 1321 429 z "},"↖":{"ha":1457,"x_min":0,"x_max":0,"o":"m 1215 172 l 612 775 l 909 772 l 909 934 l 309 943 l 319 343 l 480 343 l 477 641 l 1080 38 z "},"↔":{"ha":1457,"x_min":0,"x_max":0,"o":"m 944 942 l 830 828 l 1042 619 l 414 619 l 627 828 l 513 942 l 81 524 l 513 106 l 627 220 l 414 429 l 1042 429 l 830 220 l 944 106 l 1375 524 z "},"↕":{"ha":1457,"x_min":0,"x_max":0,"o":"m 1146 309 l 1032 422 l 823 210 l 823 838 l 1032 626 l 1146 740 l 728 1171 l 311 740 l 425 626 l 633 838 l 633 210 l 425 422 l 311 309 l 728 -123 z "},"◊":{"ha":812,"x_min":0,"x_max":0,"o":"m 404 1027 l 136 528 l 404 30 l 676 528 z m 404 271 l 271 528 l 404 786 l 541 528 z "},"@":{"ha":1570,"x_min":0,"x_max":0,"o":"m 728 -326 b 950 -283 821 -326 866 -315 l 895 -94 b 749 -123 840 -117 803 -123 b 262 329 437 -123 262 71 b 850 926 262 660 519 923 b 1298 493 1091 928 1298 793 b 1120 130 1298 340 1238 130 b 1048 234 1065 130 1048 180 b 1051 273 1048 247 1050 260 l 1103 697 l 952 697 l 909 595 b 764 703 909 659 845 703 b 473 344 589 704 473 529 b 688 93 473 195 558 93 b 874 208 776 93 867 140 b 1081 -35 871 58 941 -35 b 1522 528 1345 -35 1522 246 b 886 1139 1522 849 1303 1139 b 47 305 419 1139 47 768 b 728 -326 47 -9 233 -326 z m 755 265 b 648 378 692 265 648 315 b 789 530 648 455 709 530 b 888 420 858 530 888 476 b 755 265 888 343 833 265 z "},"&":{"ha":1033,"x_min":0,"x_max":0,"o":"m 1004 193 b 833 259 959 193 899 218 b 890 549 867 340 887 437 l 684 546 b 659 393 682 491 673 439 b 366 826 503 534 366 718 b 448 923 366 885 407 923 b 544 838 489 923 532 884 l 754 880 b 455 1125 727 1005 606 1125 b 149 834 286 1125 149 976 b 218 621 149 772 174 699 b 47 312 136 566 47 438 b 422 -24 47 166 166 -24 b 726 97 543 -24 647 18 b 1004 -10 829 31 927 -9 z m 410 191 b 256 328 306 191 256 243 b 327 462 256 387 288 429 b 549 231 391 380 468 301 b 410 191 511 205 465 191 z "},"¶":{"ha":1048,"x_min":0,"x_max":0,"o":"m 136 798 b 466 476 136 621 284 476 l 496 476 l 496 -69 l 649 -69 l 649 1119 l 466 1119 b 136 798 284 1119 136 975 z m 763 1119 l 763 -75 l 912 -75 l 912 1119 z "},"§":{"ha":902,"x_min":0,"x_max":0,"o":"m 701 378 b 766 540 746 423 766 479 b 526 789 766 675 666 730 b 374 880 401 841 374 844 b 456 936 374 924 414 936 b 597 869 515 936 562 913 l 741 990 b 465 1139 702 1078 583 1139 b 165 889 314 1139 165 1047 b 230 737 165 823 192 774 b 161 578 185 696 161 642 b 385 335 161 437 282 375 b 553 217 481 298 553 271 b 454 161 553 173 503 161 b 253 259 361 161 292 203 l 136 123 b 446 -42 178 37 297 -42 b 762 229 620 -42 762 64 b 701 378 762 295 739 341 z m 363 570 b 432 630 363 606 396 625 b 564 528 505 602 564 574 b 522 477 564 504 547 487 l 522 477 b 363 570 405 525 363 530 z "},"©":{"ha":1181,"x_min":0,"x_max":0,"o":"m 591 -60 b 1134 484 889 -60 1134 178 b 591 1026 1134 781 896 1026 b 47 484 286 1026 47 785 b 591 -60 47 180 288 -60 z m 591 46 b 154 483 353 46 154 243 b 591 921 154 723 351 921 b 1027 483 830 921 1027 723 b 591 46 1027 243 830 46 z m 606 157 b 819 235 688 157 762 186 l 723 362 b 606 315 692 334 652 315 b 435 488 511 315 435 393 b 606 659 435 582 511 659 b 722 612 651 659 692 641 l 812 745 b 606 817 755 790 684 817 b 275 488 422 817 275 669 b 606 157 275 304 422 157 z "},"®":{"ha":719,"x_min":0,"x_max":0,"o":"m 359 1093 b 54 789 189 1093 54 958 b 359 483 54 618 189 483 b 665 789 528 483 665 616 b 359 1093 665 956 531 1093 z m 359 547 b 118 788 228 547 118 656 b 359 1030 118 921 227 1030 b 601 788 492 1030 601 921 b 359 547 601 656 492 547 z m 467 846 b 363 945 467 901 420 945 l 262 945 l 263 638 l 325 638 l 325 783 l 422 638 l 498 638 l 411 760 b 467 846 444 772 467 807 z m 324 884 l 364 884 b 404 846 385 884 404 867 b 364 807 404 824 385 807 l 324 807 z "},"™":{"ha":884,"x_min":0,"x_max":0,"o":"m 856 1105 l 634 798 l 412 1105 l 407 1105 l 407 629 l 500 629 l 500 831 l 634 637 l 635 637 l 768 831 l 768 629 l 861 629 l 861 1105 z m 35 1001 l 149 1001 l 149 629 l 242 629 l 242 1001 l 356 1001 l 356 1093 l 35 1093 z "},"°":{"ha":471,"x_min":0,"x_max":0,"o":"m 235 732 b 427 923 339 732 427 818 b 235 1115 427 1027 340 1115 b 44 923 131 1115 44 1027 b 235 732 44 819 132 732 z m 235 829 b 141 923 182 829 141 872 b 235 1018 141 975 185 1018 b 330 924 286 1018 330 975 b 235 829 330 871 287 829 z "},"|":{"ha":402,"x_min":0,"x_max":0,"o":"m 136 -305 l 267 -305 l 267 1255 l 136 1255 z "},"¦":{"ha":402,"x_min":0,"x_max":0,"o":"m 136 576 l 267 576 l 267 1255 l 136 1255 z m 136 -305 l 267 -305 l 267 373 l 136 373 z "},"†":{"ha":463,"x_min":0,"x_max":0,"o":"m 449 963 l 293 963 l 293 1119 l 170 1119 l 170 963 l 14 963 l 14 852 l 170 852 l 170 0 l 293 0 l 293 852 l 449 852 z "},"‡":{"ha":463,"x_min":0,"x_max":0,"o":"m 449 852 l 449 963 l 293 963 l 293 1119 l 170 1119 l 170 963 l 14 963 l 14 852 l 170 852 l 170 267 l 14 267 l 14 156 l 170 156 l 170 0 l 293 0 l 293 156 l 449 156 l 449 267 l 293 267 l 293 852 z "},"℮":{"ha":1317,"x_min":0,"x_max":0,"o":"m 679 -22 b 1214 284 948 -22 1151 142 l 1140 284 b 680 45 1076 161 886 45 b 250 222 531 45 372 105 l 250 505 l 1264 505 b 1270 591 1267 524 1270 562 b 683 1109 1270 874 1016 1109 b 47 544 340 1109 47 859 b 679 -22 47 222 350 -22 z m 250 581 l 250 867 b 683 1042 366 975 517 1042 b 1081 882 848 1042 980 976 l 1081 581 z "},"ʼ":{"ha":279,"x_min":0,"x_max":0,"o":"m 14 760 l 184 760 l 265 1119 l 62 1119 z "},"̈":{"ha":0,"x_min":0,"x_max":0,"o":"m -359 926 b -277 1008 -315 926 -277 963 b -359 1090 -277 1052 -315 1090 b -441 1008 -404 1090 -441 1052 b -359 926 -441 963 -404 926 z m -55 926 b 27 1008 -10 926 27 963 b -55 1090 27 1052 -10 1090 b -136 1008 -99 1090 -136 1052 b -55 926 -136 963 -100 926 z "},"̇":{"ha":0,"x_min":0,"x_max":0,"o":"m -203 925 b -108 1019 -151 925 -108 967 b -203 1115 -108 1070 -151 1115 b -298 1019 -255 1115 -298 1070 b -203 925 -298 968 -256 925 z "},"̀":{"ha":0,"x_min":0,"x_max":0,"o":"m -155 904 l 0 904 l -127 1126 l -317 1126 z "},"́":{"ha":0,"x_min":0,"x_max":0,"o":"m -161 904 l 0 1126 l -190 1126 l -317 904 z "},"̋":{"ha":0,"x_min":0,"x_max":0,"o":"m -513 904 l -378 904 l -244 1126 l -414 1126 z m -283 904 l -141 904 l 41 1126 l -142 1126 z "},"̂":{"ha":0,"x_min":0,"x_max":0,"o":"m -511 913 l -336 913 l -236 1013 l -135 913 l 41 913 l -176 1112 l -297 1112 z "},"̌":{"ha":0,"x_min":0,"x_max":0,"o":"m -511 1112 l -297 913 l -176 913 l 41 1112 l -135 1112 l -236 1013 l -336 1112 z "},"̆":{"ha":0,"x_min":0,"x_max":0,"o":"m -204 916 b -7 1114 -96 916 -7 1005 l -109 1114 b -204 1012 -109 1057 -151 1012 b -299 1114 -256 1012 -299 1057 l -401 1114 b -204 916 -401 1005 -313 916 z "},"̊":{"ha":0,"x_min":0,"x_max":0,"o":"m -157 879 b -7 1029 -76 879 -7 947 b -157 1180 -7 1112 -76 1180 b -308 1029 -240 1180 -308 1112 b -157 879 -308 947 -240 879 z m -157 968 b -219 1029 -191 968 -219 995 b -157 1090 -219 1063 -191 1090 b -96 1029 -123 1090 -96 1063 b -157 968 -96 995 -123 968 z "},"̃":{"ha":0,"x_min":0,"x_max":0,"o":"m -452 920 b -382 1006 -441 970 -424 1006 b -176 920 -314 1006 -279 920 b 0 1078 -127 920 -29 935 l -105 1119 b -176 1033 -116 1069 -134 1033 b -382 1119 -243 1033 -279 1119 b -557 961 -430 1119 -528 1104 z "},"̄":{"ha":0,"x_min":0,"x_max":0,"o":"m -401 947 l -6 947 l -6 1057 l -401 1057 z "},"̒":{"ha":0,"x_min":0,"x_max":0,"o":"m -153 1194 b -307 1015 -245 1194 -307 1106 b -204 894 -307 936 -260 894 b -104 982 -146 894 -104 935 b -187 1058 -104 1031 -153 1058 b -195 1089 -193 1066 -195 1072 b -100 1171 -195 1145 -136 1171 b -153 1194 -100 1177 -119 1194 z "},"̦":{"ha":0,"x_min":0,"x_max":0,"o":"m -255 -385 b -101 -205 -163 -385 -101 -296 b -203 -84 -101 -126 -148 -84 b -304 -172 -262 -84 -304 -125 b -220 -248 -304 -222 -254 -248 b -212 -279 -214 -256 -212 -262 b -307 -361 -212 -336 -271 -361 b -255 -385 -307 -368 -288 -385 z "},"̧":{"ha":0,"x_min":0,"x_max":0,"o":"m -321 -373 b -50 -172 -167 -373 -50 -278 b -141 -64 -50 -109 -92 -64 b -170 -66 -152 -64 -159 -64 l -99 23 l -207 23 l -309 -111 l -282 -146 b -248 -142 -269 -144 -258 -142 b -199 -178 -212 -142 -199 -160 b -376 -240 -199 -215 -250 -240 z "},"̨":{"ha":0,"x_min":0,"x_max":0,"o":"m -73 -362 l -96 -210 b -173 -221 -130 -218 -160 -221 b -222 -165 -218 -221 -222 -180 b -82 0 -222 -114 -178 -70 l -182 19 b -377 -217 -286 -12 -377 -102 b -185 -376 -377 -316 -309 -376 b -73 -362 -153 -376 -115 -372 z "},"̵":{"ha":0,"x_min":0,"x_max":0,"o":"m -535 426 l 0 426 l 0 582 l -535 582 z "},"̶":{"ha":0,"x_min":0,"x_max":0,"o":"m -707 426 l 288 426 l 288 582 l -707 582 z "},"̷":{"ha":0,"x_min":0,"x_max":0,"o":"m -448 625 l 32 970 l 32 1143 l -448 796 z "},"̸":{"ha":0,"x_min":0,"x_max":0,"o":"m -820 -76 l -634 -76 l 17 877 l -168 877 z "},"¨":{"ha":407,"x_min":0,"x_max":0,"o":"m 48 926 b 130 1008 92 926 130 963 b 48 1090 130 1052 92 1090 b -34 1008 3 1090 -34 1052 b 48 926 -34 963 3 926 z m 352 926 b 434 1008 397 926 434 963 b 352 1090 434 1052 397 1090 b 271 1008 308 1090 271 1052 b 352 926 271 963 307 926 z "},"˙":{"ha":407,"x_min":0,"x_max":0,"o":"m 204 925 b 299 1019 256 925 299 967 b 204 1115 299 1070 256 1115 b 109 1019 152 1115 109 1070 b 204 925 109 968 151 925 z "},"`":{"ha":407,"x_min":0,"x_max":0,"o":"m 161 904 l 317 904 l 190 1126 l 0 1126 z "},"´":{"ha":407,"x_min":0,"x_max":0,"o":"m 155 904 l 317 1126 l 127 1126 l 0 904 z "},"˝":{"ha":407,"x_min":0,"x_max":0,"o":"m -14 904 l 121 904 l 255 1126 l 85 1126 z m 216 904 l 358 904 l 540 1126 l 357 1126 z "},"ˆ":{"ha":407,"x_min":0,"x_max":0,"o":"m -41 913 l 134 913 l 234 1013 l 335 913 l 511 913 l 294 1112 l 173 1112 z "},"ˇ":{"ha":407,"x_min":0,"x_max":0,"o":"m -41 1112 l 173 913 l 294 913 l 511 1112 l 335 1112 l 234 1013 l 134 1112 z "},"˘":{"ha":407,"x_min":0,"x_max":0,"o":"m 203 916 b 400 1114 311 916 400 1005 l 298 1114 b 203 1012 298 1057 256 1012 b 108 1114 151 1012 108 1057 l 6 1114 b 203 916 6 1005 94 916 z "},"˚":{"ha":407,"x_min":0,"x_max":0,"o":"m 158 879 b 308 1029 239 879 308 947 b 158 1180 308 1112 239 1180 b 7 1029 75 1180 7 1112 b 158 879 7 947 75 879 z m 158 968 b 96 1029 124 968 96 995 b 158 1090 96 1063 124 1090 b 219 1029 192 1090 219 1063 b 158 968 219 995 192 968 z "},"˜":{"ha":503,"x_min":0,"x_max":0,"o":"m 105 920 b 176 1006 116 970 134 1006 b 382 920 243 1006 279 920 b 557 1078 430 920 528 935 l 452 1119 b 382 1033 441 1069 423 1033 b 176 1119 314 1033 279 1119 b 0 961 127 1119 29 1104 z "},"¯":{"ha":407,"x_min":0,"x_max":0,"o":"m 6 947 l 401 947 l 401 1057 l 6 1057 z "},"¸":{"ha":407,"x_min":0,"x_max":0,"o":"m 85 -373 b 357 -172 240 -373 357 -278 b 266 -64 357 -109 315 -64 b 237 -66 255 -64 248 -64 l 308 23 l 200 23 l 98 -111 l 125 -146 b 159 -142 138 -144 149 -142 b 208 -178 195 -142 208 -160 b 31 -240 208 -215 157 -240 z "},"˛":{"ha":407,"x_min":0,"x_max":0,"o":"m 334 -362 l 311 -210 b 234 -221 277 -218 247 -221 b 185 -165 189 -221 185 -180 b 325 0 185 -114 229 -70 l 224 19 b 30 -217 121 -12 30 -102 b 222 -376 30 -316 98 -376 b 334 -362 254 -376 292 -372 z "}}}
